<?xml version="1.0" encoding="UTF-8"?>
<svg width="151px" height="64px" viewBox="0 0 151 64" version="1.1" xmlns="http://www.w3.org/2000/svg" xmlns:xlink="http://www.w3.org/1999/xlink">
    <!-- Generator: Sketch 49.3 (51167) - http://www.bohemiancoding.com/sketch -->
    <title>Page 1@2x</title>
    <desc>Created with Sketch.</desc>
    <defs>
        <polygon id="path-1" points="0 63.9720315 150.83081 63.9720315 150.83081 0 0 0"></polygon>
    </defs>
    <g id="Symbols" stroke="none" stroke-width="1" fill="none" fill-rule="evenodd">
        <g id="footer" transform="translate(-165.000000, -23.000000)">
            <g id="Page-1" transform="translate(165.000000, 23.000000)">
                <path d="M5.05369092,49.8017512 L3.88954571,49.8017512 L3.88954571,46.0547276 C3.88954571,45.9027906 3.80233449,45.7901606 3.62267937,45.715074 C3.44626353,45.6399874 3.14575858,45.6016882 2.72365627,45.6016882 C2.29607211,45.6016882 1.99606551,45.6369638 1.82164307,45.7097827 C1.64771898,45.7808378 1.56175363,45.8942236 1.56175363,46.0547276 L1.56175363,49.8017512 L0.398355941,49.8017512 L0.398355941,45.931263 C0.398355941,45.3560189 0.623610066,44.9478299 1.07162657,44.7039244 C1.4389104,44.5043654 1.98883944,44.403326 2.72365627,44.403326 C3.44626353,44.403326 3.9979368,44.5129323 4.38091865,44.7271055 C4.82918432,44.9805858 5.05369092,45.3812157 5.05369092,45.931263 L5.05369092,49.8017512 Z" id="Fill-1" fill="#FEFEFE"></path>
                <path d="M9.89872277,48.033789 L9.06348845,46.161663 C9.04006601,46.1117732 9.00592904,46.0883402 8.96182508,46.0883402 C8.90924917,46.0883402 8.87286964,46.1117732 8.85193894,46.161663 L8.01520957,48.033789 L9.89872277,48.033789 Z M11.9937855,49.801852 L10.7155182,49.801852 L10.3101106,48.9176945 L7.60656271,48.9176945 L7.19966007,49.801852 L5.92338614,49.801852 L8.15649175,44.9580094 C8.31845545,44.6029858 8.58532178,44.4261039 8.96182508,44.4261039 C9.14222772,44.4261039 9.3014505,44.4729701 9.4375,44.5631748 C9.57080858,44.6553953 9.68044554,44.785915 9.76167657,44.9580094 L11.9937855,49.801852 Z" id="Fill-3" fill="#FEFEFE"></path>
                <polygon id="Fill-5" fill="#FEFEFE" points="16.3524528 45.687811 14.3226739 45.687811 14.3226739 49.8017008 13.1597746 49.8017008 13.1597746 45.687811 11.123268 45.687811 11.123268 44.512126 16.3524528 44.512126"></polygon>
                <mask id="mask-2" fill="white">
                    <use xlink:href="#path-1"></use>
                </mask>
                <g id="Clip-8"></g>
                <polygon id="Fill-7" fill="#FEFEFE" mask="url(#mask-2)" points="17.1155759 49.8018268 18.2802195 49.8018268 18.2802195 44.512252 17.1155759 44.512252"></polygon>
                <path d="M23.5970391,48.5030299 L23.5970391,45.8034394 C23.5970391,45.7721953 23.5838328,45.7442268 23.5629021,45.7223055 C23.5404764,45.6988724 23.5130672,45.6877858 23.4816711,45.6877858 L20.8067784,45.6877858 C20.7726414,45.6877858 20.7479731,45.6988724 20.7240523,45.7223055 C20.7018757,45.7442268 20.6916596,45.7721953 20.6916596,45.8034394 L20.6916596,48.5030299 C20.6916596,48.5398173 20.7018757,48.5698016 20.7240523,48.5917228 C20.7479731,48.6149039 20.7726414,48.6249827 20.8067784,48.6249827 L23.4816711,48.6249827 C23.5576695,48.6249827 23.5970391,48.5844157 23.5970391,48.5030299 Z M24.7601876,48.6275024 C24.7601876,48.9449827 24.6475606,49.2206362 24.4200639,49.4534551 C24.1940622,49.6857701 23.9212157,49.8016756 23.598285,49.8016756 L20.6886695,49.8016756 C20.3657388,49.8016756 20.0916464,49.6882898 19.8668906,49.4597543 C19.6393939,49.230715 19.5280127,48.9527937 19.5280127,48.6275024 L19.5280127,45.686274 C19.5280127,45.3599748 19.6393939,45.0823055 19.8668906,44.854022 C20.0916464,44.6254866 20.3657388,44.5121008 20.6886695,44.5121008 L23.598285,44.5121008 C23.9212157,44.5121008 24.1940622,44.6254866 24.4200639,44.854022 C24.6475606,45.0823055 24.7601876,45.3599748 24.7601876,45.686274 L24.7601876,48.6275024 Z" id="Fill-9" fill="#FEFEFE" mask="url(#mask-2)"></path>
                <path d="M31.2372653,49.8017512 L30.0766086,49.8017512 C29.8989469,49.8017512 29.7434617,49.7523654 29.6116482,49.6553575 C29.5027587,49.5787591 29.389135,49.4489953 29.2715244,49.2698457 L27.2718957,46.2472315 C27.250965,46.2018772 27.2173264,46.178948 27.1702323,46.178948 L27.1702323,49.8017512 L26.0068347,49.8017512 L26.0068347,44.5121764 L27.1674914,44.5121764 C27.3399205,44.5121764 27.4944089,44.5605543 27.632701,44.6583181 C27.7448297,44.738948 27.8574568,44.8672 27.9700838,45.0370268 L29.9657257,48.0596409 C29.9851614,48.1102866 30.0215409,48.1347276 30.0741168,48.1347276 L30.0741168,44.5121764 L31.2372653,44.5121764 L31.2372653,49.8017512 Z" id="Fill-10" fill="#FEFEFE" mask="url(#mask-2)"></path>
                <path d="M36.1248812,48.033789 L35.2908927,46.161663 C35.2652277,46.1117732 35.2315891,46.0883402 35.1864884,46.0883402 C35.1344109,46.0883402 35.0992772,46.1117732 35.0783465,46.161663 L34.2431122,48.033789 L36.1248812,48.033789 Z M38.2189472,49.801852 L36.9434208,49.801852 L36.5367673,48.9176945 L33.8314752,48.9176945 L33.4275627,49.801852 L32.1495446,49.801852 L34.3816535,44.9580094 C34.5436172,44.6029858 34.8129752,44.4261039 35.1864884,44.4261039 C35.3701304,44.4261039 35.5278581,44.4729701 35.6624125,44.5631748 C35.798462,44.6553953 35.9056073,44.785915 35.9863399,44.9580094 L38.2189472,49.801852 Z" id="Fill-11" fill="#FEFEFE" mask="url(#mask-2)"></path>
                <polygon id="Fill-12" fill="#FEFEFE" mask="url(#mask-2)" points="43.198384 49.8017512 39.1311018 49.8017512 39.1311018 44.5121764 40.2930045 44.5121764 40.2930045 48.6250583 43.198384 48.6250583"></polygon>
                <path d="M52.762415,46.5655181 C52.762415,46.8933291 52.6500371,47.1692346 52.4255305,47.398778 C52.1980338,47.6270614 51.9249381,47.7419591 51.6007616,47.7419591 L48.8077599,47.7419591 L48.8077599,49.8018016 L47.6446114,49.8018016 L47.6446114,46.5655181 L51.4791642,46.5655181 C51.5142979,46.5655181 51.542953,46.5544315 51.5653787,46.5309984 C51.588552,46.5098331 51.5995157,46.4818646 51.5995157,46.4496126 L51.5995157,45.8035654 C51.5995157,45.7269669 51.5589002,45.6879118 51.4791642,45.6879118 L47.6446114,45.6879118 L47.6446114,44.5122268 L51.6007616,44.5122268 C51.9159678,44.5122268 52.1873193,44.6256126 52.4175569,44.8538961 C52.6475454,45.0821795 52.762415,45.3601008 52.762415,45.6864 L52.762415,46.5655181 Z" id="Fill-13" fill="#FEFEFE" mask="url(#mask-2)"></path>
                <path d="M57.6162178,48.5030299 L57.6162178,45.8034394 C57.6162178,45.7721953 57.6062508,45.7442268 57.5825792,45.7223055 C57.5613993,45.6988724 57.5327442,45.6877858 57.5018465,45.6877858 L54.8249604,45.6877858 C54.7935644,45.6877858 54.7671518,45.6988724 54.7442277,45.7223055 C54.723297,45.7442268 54.7110875,45.7721953 54.7110875,45.8034394 L54.7110875,48.5030299 C54.7110875,48.5398173 54.723297,48.5698016 54.7442277,48.5917228 C54.7671518,48.6149039 54.7935644,48.6249827 54.8249604,48.6249827 L57.5018465,48.6249827 C57.5775957,48.6249827 57.6162178,48.5844157 57.6162178,48.5030299 Z M58.7798647,48.6275024 C58.7798647,48.9449827 58.6659917,49.2206362 58.4402393,49.4534551 C58.2149851,49.6857701 57.9403944,49.8016756 57.617962,49.8016756 L54.7083465,49.8016756 C54.3859142,49.8016756 54.1113234,49.6882898 53.8865677,49.4597543 C53.6603168,49.230715 53.5481881,48.9527937 53.5481881,48.6275024 L53.5481881,45.686274 C53.5481881,45.3599748 53.6603168,45.0823055 53.8865677,44.854022 C54.1113234,44.6254866 54.3859142,44.5121008 54.7083465,44.5121008 L57.617962,44.5121008 C57.9403944,44.5121008 58.2149851,44.6254866 58.4402393,44.854022 C58.6659917,45.0823055 58.7798647,45.3599748 58.7798647,45.686274 L58.7798647,48.6275024 Z" id="Fill-14" fill="#FEFEFE" mask="url(#mask-2)"></path>
                <path d="M63.5185487,46.4496378 L63.5185487,45.8035906 C63.5185487,45.7269921 63.4796774,45.687937 63.3994431,45.687937 L61.1937467,45.687937 L61.1937467,46.5655433 L63.3994431,46.5655433 C63.4350751,46.5655433 63.4652252,46.5544567 63.4874018,46.5310236 C63.5110734,46.5098583 63.5185487,46.4818898 63.5185487,46.4496378 Z M64.6844381,49.8018268 L63.5185487,49.8018268 L63.5185487,47.8631811 C63.5185487,47.7817953 63.4796774,47.7419843 63.3994431,47.7419843 L61.1937467,47.7419843 L61.1937467,49.8018268 L60.0305982,49.8018268 L60.0305982,44.512252 L63.5212896,44.512252 C63.83525,44.512252 64.1095916,44.6256378 64.3383342,44.8539213 C64.5695685,45.0822047 64.6844381,45.360126 64.6844381,45.6839055 L64.6844381,46.5655433 C64.6844381,46.679685 64.6659992,46.792315 64.6283738,46.9019213 C64.5904992,47.0120315 64.5354315,47.095685 64.4679051,47.1536378 C64.5354315,47.2100787 64.5904992,47.2929764 64.6283738,47.400063 C64.6659992,47.5089134 64.6844381,47.6215433 64.6844381,47.7397165 L64.6844381,49.8018268 Z" id="Fill-15" fill="#FEFEFE" mask="url(#mask-2)"></path>
                <polygon id="Fill-16" fill="#FEFEFE" mask="url(#mask-2)" points="70.6757493 45.687811 68.6444754 45.687811 68.6444754 49.8017008 67.4818252 49.8017008 67.4818252 45.687811 65.4440728 45.687811 65.4440728 44.512126 70.6757493 44.512126"></polygon>
                <polygon id="Fill-17" fill="#FEFEFE" mask="url(#mask-2)" points="75.8459046 45.687811 72.6452528 45.687811 72.6452528 46.5654173 75.5553667 46.5654173 75.5553667 47.7418583 72.6452528 47.7418583 72.6452528 49.8017008 71.4806092 49.8017008 71.4806092 44.512126 75.8459046 44.512126"></polygon>
                <path d="M80.6763348,48.5030299 L80.6763348,45.8034394 C80.6763348,45.7721953 80.6656203,45.7442268 80.6446896,45.7223055 C80.6215163,45.6988724 80.5951038,45.6877858 80.5627111,45.6877858 L77.88732,45.6877858 C77.8544289,45.6877858 77.8272688,45.6988724 77.8063381,45.7223055 C77.7841616,45.7442268 77.7724503,45.7721953 77.7724503,45.8034394 L77.7724503,48.5030299 C77.7724503,48.5398173 77.7841616,48.5698016 77.8063381,48.5917228 C77.8272688,48.6149039 77.8544289,48.6249827 77.88732,48.6249827 L80.5627111,48.6249827 C80.6397061,48.6249827 80.6763348,48.5844157 80.6763348,48.5030299 Z M81.8394833,48.6275024 C81.8394833,48.9449827 81.7268563,49.2206362 81.5021005,49.4534551 C81.2746038,49.6857701 81.0017573,49.8016756 80.6788266,49.8016756 L77.7709553,49.8016756 C77.4482738,49.8016756 77.173683,49.6882898 76.9476814,49.4597543 C76.7211814,49.230715 76.6090526,48.9527937 76.6090526,48.6275024 L76.6090526,45.686274 C76.6090526,45.3599748 76.7211814,45.0823055 76.9476814,44.854022 C77.173683,44.6254866 77.4482738,44.5121008 77.7709553,44.5121008 L80.6788266,44.5121008 C81.0017573,44.5121008 81.2746038,44.6254866 81.5021005,44.854022 C81.7268563,45.0823055 81.8394833,45.3599748 81.8394833,45.686274 L81.8394833,48.6275024 Z" id="Fill-18" fill="#FEFEFE" mask="url(#mask-2)"></path>
                <polygon id="Fill-19" fill="#FEFEFE" mask="url(#mask-2)" points="87.1480802 49.8017512 83.0800505 49.8017512 83.0800505 44.5121764 84.2429498 44.5121764 84.2429498 48.6250583 87.1480802 48.6250583"></polygon>
                <polygon id="Fill-20" fill="#FEFEFE" mask="url(#mask-2)" points="87.8055033 49.8018268 88.9691502 49.8018268 88.9691502 44.512252 87.8055033 44.512252"></polygon>
                <path d="M94.2865429,48.5030299 L94.2865429,45.8034394 C94.2865429,45.7721953 94.2765759,45.7442268 94.2524059,45.7223055 C94.2317244,45.6988724 94.2058102,45.6877858 94.1716733,45.6877858 L91.4965314,45.6877858 C91.4638894,45.6877858 91.4374769,45.6988724 91.4145528,45.7223055 C91.3936221,45.7442268 91.3816617,45.7721953 91.3816617,45.8034394 L91.3816617,48.5030299 C91.3816617,48.5398173 91.3936221,48.5698016 91.4145528,48.5917228 C91.4374769,48.6149039 91.4638894,48.6249827 91.4965314,48.6249827 L94.1716733,48.6249827 C94.2476716,48.6249827 94.2865429,48.5844157 94.2865429,48.5030299 Z M95.4501898,48.6275024 C95.4501898,48.9449827 95.3375627,49.2206362 95.110066,49.4534551 C94.8853102,49.6857701 94.6107195,49.8016756 94.289533,49.8016756 L91.3804158,49.8016756 C91.0574851,49.8016756 90.7831436,49.6882898 90.5563944,49.4597543 C90.329396,49.230715 90.2185132,48.9527937 90.2185132,48.6275024 L90.2185132,45.686274 C90.2185132,45.3599748 90.329396,45.0823055 90.5563944,44.854022 C90.7831436,44.6254866 91.0574851,44.5121008 91.3804158,44.5121008 L94.289533,44.5121008 C94.6107195,44.5121008 94.8853102,44.6254866 95.110066,44.854022 C95.3375627,45.0823055 95.4501898,45.3599748 95.4501898,45.686274 L95.4501898,48.6275024 Z" id="Fill-21" fill="#FEFEFE" mask="url(#mask-2)"></path>
                <path d="M105.544664,48.6275276 C105.544664,48.9450079 105.432286,49.2196535 105.207282,49.4534803 C104.981031,49.6857953 104.705942,49.8017008 104.384008,49.8017008 L100.314234,49.8017008 L100.314234,48.6250079 L104.266397,48.6250079 C104.34389,48.6250079 104.381765,48.5844409 104.381765,48.5030551 L104.381765,47.8625512 C104.381765,47.8262677 104.370801,47.7967874 104.348874,47.7748661 C104.326697,47.751937 104.300534,47.7418583 104.266397,47.7418583 L101.47514,47.7418583 C101.15196,47.7418583 100.876871,47.6269606 100.651367,47.3986772 C100.426861,47.1693858 100.314234,46.8932283 100.314234,46.5654173 L100.314234,45.6862992 C100.314234,45.36 100.426861,45.0823307 100.651367,44.8537953 C100.878864,44.6255118 101.153704,44.512126 101.47514,44.512126 L105.544664,44.512126 L105.544664,45.687811 L101.59275,45.687811 C101.559859,45.687811 101.53245,45.6988976 101.510273,45.7223307 C101.487848,45.744252 101.477881,45.7722205 101.477881,45.8034646 L101.477881,46.4495118 C101.477881,46.4817638 101.487848,46.5099843 101.510273,46.5311496 C101.53245,46.5543307 101.559859,46.5654173 101.59275,46.5654173 L104.384008,46.5654173 C104.708184,46.5654173 104.981031,46.679811 105.207282,46.9080945 C105.432286,47.135622 105.544664,47.4135433 105.544664,47.7398425 L105.544664,48.6275276 Z" id="Fill-22" fill="#FEFEFE" mask="url(#mask-2)"></path>
                <polygon id="Fill-23" fill="#FEFEFE" mask="url(#mask-2)" points="111.258669 49.8017512 106.606075 49.8017512 106.606075 44.5121764 111.258669 44.5121764 111.258669 45.6878614 107.769223 45.6878614 107.769223 46.5654677 110.967134 46.5654677 110.967134 47.7419087 107.769223 47.7419087 107.769223 48.6250583 111.258669 48.6250583"></polygon>
                <path d="M116.741489,49.8017512 L113.250548,49.8017512 C112.926372,49.8017512 112.65203,49.6883654 112.427274,49.4598299 C112.199778,49.2305386 112.08715,48.9528693 112.08715,48.627578 L112.08715,45.6863496 C112.08715,45.3600504 112.199778,45.0823811 112.427274,44.8538457 C112.65203,44.6255622 112.926372,44.5121764 113.250548,44.5121764 L116.741489,44.5121764 L116.741489,45.6878614 L113.365418,45.6878614 C113.334271,45.6878614 113.305616,45.698948 113.28319,45.7223811 C113.260764,45.7440504 113.250548,45.7722709 113.250548,45.803515 L113.250548,48.5031055 C113.250548,48.5398929 113.260764,48.5696252 113.28319,48.5915465 C113.305616,48.6149795 113.334271,48.6250583 113.365418,48.6250583 L116.741489,48.6250583 L116.741489,49.8017512 Z" id="Fill-24" fill="#FEFEFE" mask="url(#mask-2)"></path>
                <path d="M122.085593,48.6275276 C122.085593,48.9487874 121.971969,49.2251969 121.744473,49.4567559 C121.515481,49.6865512 121.242385,49.8017008 120.924936,49.8017008 L118.593157,49.8017008 C118.271722,49.8017008 117.99738,49.688315 117.772375,49.4597795 C117.545128,49.2307402 117.432501,48.9528189 117.432501,48.6275276 L117.432501,44.512126 L118.595898,44.512126 L118.595898,48.5030551 C118.595898,48.5398425 118.606115,48.5698268 118.630035,48.5914961 C118.650966,48.6149291 118.679621,48.6250079 118.709771,48.6250079 L120.802342,48.6250079 C120.882078,48.6250079 120.922195,48.5844409 120.922195,48.5030551 L120.922195,44.512126 L122.085593,44.512126 L122.085593,48.6275276 Z" id="Fill-25" fill="#FEFEFE" mask="url(#mask-2)"></path>
                <path d="M126.841595,46.4496378 L126.841595,45.8035906 C126.841595,45.7269921 126.800979,45.687937 126.720247,45.687937 L124.513803,45.687937 L124.513803,46.5655433 L126.720247,46.5655433 C126.756377,46.5655433 126.785032,46.5544567 126.807458,46.5310236 C126.829883,46.5098583 126.841595,46.4818898 126.841595,46.4496378 Z M128.003497,49.8018268 L126.841595,49.8018268 L126.841595,47.8631811 C126.841595,47.7817953 126.800979,47.7419843 126.720247,47.7419843 L124.513803,47.7419843 L124.513803,49.8018268 L123.350405,49.8018268 L123.350405,44.512252 L126.842841,44.512252 C127.156552,44.512252 127.430893,44.6256378 127.659636,44.8539213 C127.888129,45.0822047 128.003497,45.360126 128.003497,45.6839055 L128.003497,46.5655433 C128.00574,46.679685 127.98755,46.792315 127.94843,46.9019213 C127.910555,47.0120315 127.856733,47.095685 127.789207,47.1536378 C127.856733,47.2100787 127.910555,47.2929764 127.94843,47.400063 C127.98755,47.5089134 128.00574,47.6215433 128.003497,47.7397165 L128.003497,49.8018268 Z" id="Fill-26" fill="#FEFEFE" mask="url(#mask-2)"></path>
                <polygon id="Fill-27" fill="#FEFEFE" mask="url(#mask-2)" points="129.258243 49.8018268 130.420893 49.8018268 130.420893 44.512252 129.258243 44.512252"></polygon>
                <polygon id="Fill-28" fill="#FEFEFE" mask="url(#mask-2)" points="136.464257 45.687811 134.433481 45.687811 134.433481 49.8017008 133.270333 49.8017008 133.270333 45.687811 131.232829 45.687811 131.232829 44.512126 136.464257 44.512126"></polygon>
                <polygon id="Fill-29" fill="#FEFEFE" mask="url(#mask-2)" points="137.227355 49.8018268 138.391002 49.8018268 138.391002 44.512252 137.227355 44.512252"></polygon>
                <polygon id="Fill-30" fill="#FEFEFE" mask="url(#mask-2)" points="144.321788 49.8017512 139.671686 49.8017512 139.671686 44.5121764 144.321788 44.5121764 144.321788 45.6878614 140.834585 45.6878614 140.834585 46.5654677 144.032995 46.5654677 144.032995 47.7419087 140.834585 47.7419087 140.834585 48.6250583 144.321788 48.6250583"></polygon>
                <path d="M149.735263,48.6275276 C149.735263,48.9487874 149.620144,49.2251969 149.392647,49.4567559 C149.165151,49.6865512 148.892055,49.8017008 148.57336,49.8017008 L145.081174,49.8017008 L145.081174,48.6250079 L148.450517,48.6250079 C148.530004,48.6250079 148.571865,48.5844409 148.571865,48.5030551 L148.571865,47.8625512 C148.571865,47.7819213 148.530004,47.7418583 148.450517,47.7418583 L146.242827,47.7418583 C145.9189,47.7418583 145.644309,47.6269606 145.419553,47.3986772 C145.194798,47.1693858 145.081174,46.8932283 145.081174,46.5654173 L145.081174,45.6862992 C145.081174,45.36 145.194798,45.0823307 145.419553,44.8537953 C145.644309,44.6255118 145.9189,44.512126 146.242827,44.512126 L149.151944,44.512126 L149.151944,45.687811 L146.360687,45.687811 C146.327796,45.687811 146.300636,45.6988976 146.279954,45.7223307 C146.255784,45.744252 146.244073,45.7722205 146.244073,45.8034646 L146.244073,46.4495118 C146.244073,46.4817638 146.255784,46.5099843 146.279954,46.5311496 C146.300636,46.5543307 146.327796,46.5654173 146.360687,46.5654173 L148.574606,46.5654173 C148.892055,46.5654173 149.166895,46.679811 149.392647,46.9106142 C149.620144,47.1419213 149.735263,47.4180787 149.735263,47.7398425 L149.735263,48.6275276 Z" id="Fill-31" fill="#FEFEFE" mask="url(#mask-2)"></path>
                <path d="M3.98729703,54.7547717 L5.16514686,54.7547717 L5.16514686,53.5415433 L3.98729703,53.5415433 L3.98729703,54.7547717 Z M1.9620033,54.7547717 L3.14084983,54.7547717 L3.14084983,53.5415433 L1.9620033,53.5415433 L1.9620033,54.7547717 Z M4.01869307,58.1450079 L4.01869307,56.5744882 L2.93802145,56.5744882 C2.10253795,56.5744882 1.58824092,57.2472441 1.58824092,58.2531024 C1.58824092,59.0868661 2.04921452,59.8017008 2.76683828,59.8017008 C3.5485,59.8017008 4.01869307,59.0657008 4.01869307,58.1450079 Z M7.22208581,61.5984882 L5.92562871,61.5984882 C4.99371452,61.5984882 4.2329835,60.9620157 3.98729703,59.9967244 C3.61328548,60.5387087 3.15231188,60.8085669 2.61509076,60.8085669 C1.24562541,60.8085669 0.398430693,59.7704567 0.398430693,58.263937 C0.398430693,56.64 1.24562541,55.6331339 2.61509076,55.6331339 L5.26033168,55.6331339 L5.26033168,59.0657008 C5.26033168,59.9097953 5.65801485,60.3656063 6.46160396,60.3656063 L7.22208581,60.3656063 L7.22208581,61.5984882 Z" id="Fill-32" fill="#FEFEFE" mask="url(#mask-2)"></path>
                <path d="M8.85991254,63.9720315 L10.0387591,63.9720315 L10.0387591,62.7580472 L8.85991254,62.7580472 L8.85991254,63.9720315 Z M11.8263399,61.5984882 L6.88868977,61.5984882 L6.88868977,60.3656063 L8.03614026,60.3656063 C8.38922112,60.3656063 8.63515677,60.2461732 8.7629835,59.9967244 C8.84919802,59.8347087 8.89380033,59.5530079 8.89380033,59.1737953 L8.89380033,56.6820787 L10.0806205,56.6820787 L10.0806205,59.1095433 C10.0806205,59.7470236 9.99415677,60.16 9.81350495,60.3656063 L11.8263399,60.3656063 L11.8263399,61.5984882 Z M6.83686139,63.9720315 L8.01271782,63.9720315 L8.01271782,62.7580472 L6.83686139,62.7580472 L6.83686139,63.9720315 Z" id="Fill-33" fill="#FEFEFE" mask="url(#mask-2)"></path>
                <path d="M14.5788008,59.6391055 C14.5788008,60.9500976 13.9777909,61.5984126 12.7805054,61.5984126 L11.5154444,61.5984126 L11.5154444,60.3657827 L12.5323272,60.3657827 C12.929512,60.3657827 13.1766936,60.2460976 13.2930583,60.0074835 C13.3481259,59.8784756 13.3802695,59.6186961 13.3802695,59.2283969 L13.3802695,54.6140976 L14.5788008,54.6140976 L14.5788008,59.6391055 Z" id="Fill-34" fill="#FEFEFE" mask="url(#mask-2)"></path>
                <path d="M18.841785,61.5984882 L17.438681,61.5984882 C16.8608444,61.5984882 16.4205523,61.4155591 16.1103295,61.0368504 C15.8202899,60.6896378 15.6817487,60.224252 15.6817487,59.6298583 L15.6817487,54.6139213 L16.8713097,54.6139213 L16.8713097,59.1422992 C16.8713097,59.671937 16.9891695,60.0183937 17.2136761,60.1811654 C17.3726497,60.3000945 17.6853642,60.3656063 18.1363708,60.3656063 L18.841785,60.3656063 L18.841785,61.5984882 Z" id="Fill-35" fill="#FEFEFE" mask="url(#mask-2)"></path>
                <path d="M23.1575693,60.0404409 C23.1575693,59.6617323 23.0608894,59.3253543 22.8690248,59.0539843 C22.6430231,58.7622047 22.3315545,58.6105197 21.9580413,58.6105197 C21.5947442,58.6105197 21.3057013,58.7513701 21.0899158,59.0431496 C20.9097624,59.2925984 20.8130825,59.6186457 20.8130825,59.9965984 C20.8130825,60.7774488 21.2832756,61.415685 22.0230759,61.415685 C22.3863729,61.415685 22.675665,61.2745827 22.877995,61.0039685 C23.0608894,60.7555276 23.1575693,60.4299843 23.1575693,60.0404409 Z M25.4604439,61.5986142 L23.9290149,61.5986142 C23.4685396,62.2285354 22.8256683,62.5419843 21.9901848,62.5419843 C21.165665,62.5419843 20.5332591,62.2285354 20.0732822,61.5986142 L18.4342096,61.5986142 L18.4342096,60.3657323 L19.5921254,60.3657323 C19.5806634,60.2460472 19.5806634,60.1266142 19.5806634,60.0074331 C19.5806634,59.2822677 19.8041733,58.6863622 20.2457112,58.2207244 C20.6937277,57.7548346 21.2718135,57.5167244 21.9901848,57.5167244 C22.7080578,57.5167244 23.2861436,57.7548346 23.7246914,58.2426457 C24.1639868,58.7286929 24.3887426,59.3253543 24.3887426,60.0512756 L24.3887426,60.3657323 L25.4604439,60.3657323 L25.4604439,61.5986142 Z" id="Fill-36" fill="#FEFEFE" mask="url(#mask-2)"></path>
                <path d="M28.147621,59.6391055 C28.147621,60.9500976 27.549352,61.5984126 26.3493256,61.5984126 L25.0842645,61.5984126 L25.0842645,60.3657827 L26.1033899,60.3657827 C26.4995781,60.3657827 26.7465104,60.2460976 26.8631243,60.0074835 C26.9164477,59.8784756 26.9478437,59.6186961 26.9478437,59.2283969 L26.9478437,54.6140976 L28.147621,54.6140976 L28.147621,59.6391055 Z" id="Fill-37" fill="#FEFEFE" mask="url(#mask-2)"></path>
                <polygon id="Fill-38" fill="#FEFEFE" mask="url(#mask-2)" points="29.2508927 61.5984882 30.4402046 61.5984882 30.4402046 54.6028346 29.2508927 54.6028346"></polygon>
                <path d="M39.0187987,55.6862992 L40.1946551,55.6862992 L40.1946551,54.4846614 L39.0187987,54.4846614 L39.0187987,55.6862992 Z M39.7139967,58.6970709 C39.7139967,57.8093858 39.2315941,57.2142362 38.600434,57.2142362 C37.9782442,57.2142362 37.4973366,57.8313071 37.4973366,58.6325669 C37.4973366,59.4552441 37.9261667,60.0511496 38.6113977,60.0511496 C39.2854158,60.0511496 39.7139967,59.4764094 39.7139967,58.6970709 Z M36.983538,55.6862992 L38.1613878,55.6862992 L38.1613878,54.4846614 L36.983538,54.4846614 L36.983538,55.6862992 Z M40.8390215,59.8447874 C40.8390215,61.8378583 39.2854158,63.3985512 37.2937607,63.3985512 C35.2261073,63.3985512 33.694429,61.8489449 33.694429,59.8447874 L33.694429,57.8313071 L34.8301683,57.8313071 L34.8301683,59.7157795 C34.8301683,61.2850394 35.7837607,62.3034961 37.2621155,62.3034961 C38.3442822,62.3034961 39.3193036,61.6440945 39.6392442,60.6687244 C39.3377426,60.8750866 38.9963729,60.9728504 38.6113977,60.9728504 C37.2516502,60.9728504 36.3840231,60.0841575 36.3840231,58.6527244 C36.3840231,57.2260787 37.2190083,56.336378 38.5795033,56.336378 C39.9387525,56.336378 40.8275594,57.1812283 40.8275594,58.6214803 C40.8390215,58.6761575 40.8390215,59.0868661 40.8390215,59.8447874 Z" id="Fill-39" fill="#FEFEFE" mask="url(#mask-2)"></path>
                <polygon id="Fill-40" fill="#FEFEFE" mask="url(#mask-2)" points="41.9411221 61.5984882 43.130434 61.5984882 43.130434 54.6028346 41.9411221 54.6028346"></polygon>
                <path d="M46.6106601,56.6821543 L46.6106601,60.6362961 C46.6106601,62.5850205 45.7652096,63.3983748 43.9238069,63.3983748 L43.9238069,62.3572409 C44.9180149,62.3572409 45.4123779,61.860611 45.4123779,60.8194772 L45.4123779,56.6821543 L46.6106601,56.6821543 Z" id="Fill-41" fill="#FEFEFE" mask="url(#mask-2)"></path>
                <path d="M51.0006736,59.1853606 C51.0006736,58.3400063 50.5524079,57.7766047 49.8661802,57.7766047 C49.2337743,57.7766047 48.8183997,58.3944315 48.8183997,59.1296756 C48.8183997,59.8886047 49.2679112,60.5056756 49.9185069,60.5056756 C50.5628733,60.5056756 51.0006736,59.8996913 51.0006736,59.1853606 Z M52.2345878,61.4482898 C52.2345878,62.7361008 51.4631422,63.3861795 49.9082908,63.3861795 L49.9082908,62.4231559 C50.6583073,62.4012346 51.0348106,61.8920063 51.0557413,61.0479118 C50.851667,61.4157858 50.4661934,61.598463 49.9185069,61.598463 C48.5400713,61.598463 47.6171274,60.5724472 47.6171274,59.1296756 C47.6171274,57.6685102 48.572464,56.6719748 49.9185069,56.6719748 C51.3353155,56.6719748 52.2345878,57.7327622 52.2345878,59.1634394 L52.2345878,61.4482898 Z" id="Fill-42" fill="#FEFEFE" mask="url(#mask-2)"></path>
                <path d="M60.0398426,61.5984882 L53.3362898,61.5984882 L53.3362898,60.3656063 L54.9753624,60.3656063 L53.6250835,55.3844409 L54.8901446,55.3844409 L56.228463,60.3656063 C56.560364,60.3656063 56.795336,60.2892598 56.9565521,60.1264882 C57.1606264,59.9216378 57.2558112,59.5749291 57.2558112,59.0868661 L57.2558112,54.6139213 L58.4244416,54.6139213 L58.4244416,59.8997165 C58.4244416,60.0629921 58.4139762,60.2141732 58.3813343,60.3656063 L60.0398426,60.3656063 L60.0398426,61.5984882 Z M55.1906495,54.864126 L53.3362898,54.864126 L53.3362898,54.3652283 L53.7646215,54.3652283 C53.7010818,54.160126 53.6696858,54.0406929 53.6696858,53.9872756 C53.6696858,53.4775433 54.043199,53.1089134 54.5034251,53.1089134 C54.80393,53.1089134 55.0286858,53.271685 55.1779416,53.5861417 L54.7934647,53.792 C54.7620686,53.6282205 54.6536776,53.5531339 54.4929597,53.5531339 C54.268204,53.5531339 54.1296627,53.7589921 54.1296627,53.9645984 C54.1296627,54.1485354 54.1924548,54.2893858 54.3217766,54.3652283 L55.1906495,54.3652283 L55.1906495,54.864126 Z" id="Fill-43" fill="#FEFEFE" mask="url(#mask-2)"></path>
                <path d="M62.7082318,59.6391055 C62.7082318,60.9500976 62.1072219,61.5984126 60.9074447,61.5984126 L59.6448754,61.5984126 L59.6448754,60.3657827 L60.6617583,60.3657827 C61.0591922,60.3657827 61.3046295,60.2460976 61.4222401,60.0074835 C61.4760619,59.8784756 61.508953,59.6186961 61.508953,59.2283969 L61.508953,54.6140976 L62.7082318,54.6140976 L62.7082318,59.6391055 Z" id="Fill-44" fill="#FEFEFE" mask="url(#mask-2)"></path>
                <path d="M69.5519455,54.7547717 L70.7305429,54.7547717 L70.7305429,53.5415433 L69.5519455,53.5415433 L69.5519455,54.7547717 Z M67.5271502,54.7547717 L68.7047508,54.7547717 L68.7047508,53.5415433 L67.5271502,53.5415433 L67.5271502,54.7547717 Z M69.5825941,58.1450079 L69.5825941,56.5744882 L68.5009257,56.5744882 C67.6669373,56.5744882 67.1521419,57.2472441 67.1521419,58.2531024 C67.1521419,59.0868661 67.6118696,59.8017008 68.3309884,59.8017008 C69.112401,59.8017008 69.5825941,59.0657008 69.5825941,58.1450079 Z M72.7847409,61.5984882 L71.4895297,61.5984882 C70.5581139,61.5984882 69.7973828,60.9620157 69.5516964,59.9967244 C69.1749439,60.5387087 68.7162129,60.8085669 68.1794901,60.8085669 C66.8095264,60.8085669 65.9625809,59.7704567 65.9625809,58.263937 C65.9625809,56.64 66.8095264,55.6331339 68.1794901,55.6331339 L70.8242327,55.6331339 L70.8242327,59.0657008 C70.8242327,59.9097953 71.2219158,60.3656063 72.0240099,60.3656063 L72.7847409,60.3656063 L72.7847409,61.5984882 Z" id="Fill-45" fill="#FEFEFE" mask="url(#mask-2)"></path>
                <path d="M74.4238135,63.9720315 L75.6026601,63.9720315 L75.6026601,62.7580472 L74.4238135,62.7580472 L74.4238135,63.9720315 Z M77.3904901,61.5984882 L72.4530891,61.5984882 L72.4530891,60.3656063 L73.6005396,60.3656063 C73.9531221,60.3656063 74.1993069,60.2461732 74.3268845,59.9967244 C74.4135974,59.8347087 74.4564554,59.5530079 74.4564554,59.1737953 L74.4564554,56.6820787 L75.6445215,56.6820787 L75.6445215,59.1095433 C75.6445215,59.7470236 75.559802,60.16 75.3776551,60.3656063 L77.3904901,60.3656063 L77.3904901,61.5984882 Z M72.4007624,63.9720315 L73.5796089,63.9720315 L73.5796089,62.7580472 L72.4007624,62.7580472 L72.4007624,63.9720315 Z" id="Fill-46" fill="#FEFEFE" mask="url(#mask-2)"></path>
                <path d="M79.0714241,55.6862992 L80.2502706,55.6862992 L80.2502706,54.4846614 L79.0714241,54.4846614 L79.0714241,55.6862992 Z M82.0508086,61.5984882 L77.1002013,61.5984882 L77.1002013,60.3656063 L78.2140132,60.3656063 C78.5693366,60.3656063 78.8048069,60.2461732 78.9328828,59.9967244 C79.0190974,59.8347087 79.0607096,59.5530079 79.0607096,59.1737953 L79.0607096,56.6820787 L80.2502706,56.6820787 L80.2502706,59.1095433 C80.2502706,59.7470236 80.1638069,60.16 79.9926238,60.3656063 L82.0508086,60.3656063 L82.0508086,61.5984882 Z" id="Fill-47" fill="#FEFEFE" mask="url(#mask-2)"></path>
                <path d="M89.4186368,60.3657323 L89.4186368,60.0185197 C89.4186368,58.6440315 88.8081583,57.7445039 87.767853,57.7445039 C86.5586071,57.7445039 85.3488629,58.8277165 84.6192787,60.3657323 L89.4186368,60.3657323 Z M90.5959883,61.5986142 L81.7163909,61.5986142 L81.7163909,60.3657323 L83.6876137,60.3657323 L83.6876137,54.6140472 L84.8659619,54.6140472 L84.7386335,58.5336693 C85.7236219,57.2471181 86.752216,56.6620472 87.8762441,56.6620472 C89.7278629,56.6620472 90.6493117,57.9400315 90.6493117,60.4730709 C90.6493117,60.8313701 90.6273843,61.1982362 90.5959883,61.5986142 Z" id="Fill-48" fill="#FEFEFE" mask="url(#mask-2)"></path>
                <path d="M95.0842017,60.3657323 L95.0842017,58.8818898 C95.0184195,58.2426457 94.6556208,57.7875906 94.0331818,57.7875906 C93.3272693,57.7875906 92.8780069,58.2857323 92.8780069,59.0108976 C92.8780069,59.7587402 93.3800944,60.3657323 94.0227165,60.3657323 L95.0842017,60.3657323 Z M97.7498749,61.5986142 L96.2939459,61.5986142 C96.1324805,62.7906772 95.3518155,63.3860787 93.9584294,63.3860787 L93.9584294,62.4333858 C94.5806191,62.4333858 94.9765581,62.1736063 95.1479904,61.5986142 L94.0017858,61.5986142 C92.7053287,61.5986142 91.6545581,60.5058268 91.6545581,59.0774173 C91.6545581,57.6474961 92.6951125,56.672126 94.0553584,56.672126 C95.36253,56.672126 96.2824838,57.6905827 96.2824838,59.1096693 L96.2824838,60.3657323 L97.7498749,60.3657323 L97.7498749,61.5986142 Z" id="Fill-49" fill="#FEFEFE" mask="url(#mask-2)"></path>
                <path d="M100.513,59.6391055 C100.513,60.9500976 99.9144823,61.5984126 98.7144559,61.5984126 L97.4496441,61.5984126 L97.4496441,60.3657827 L98.4690186,60.3657827 C98.8652068,60.3657827 99.1106441,60.2460976 99.2282546,60.0074835 C99.2820764,59.8784756 99.3134724,59.6186961 99.3134724,59.2283969 L99.3134724,54.6140976 L100.513,54.6140976 L100.513,59.6391055 Z" id="Fill-50" fill="#FEFEFE" mask="url(#mask-2)"></path>
                <polygon id="Fill-51" fill="#FEFEFE" mask="url(#mask-2)" points="101.616272 61.5984882 102.805086 61.5984882 102.805086 54.6028346 101.616272 54.6028346"></polygon>
                <path d="M109.648426,54.7547717 L110.824781,54.7547717 L110.824781,53.5415433 L109.648426,53.5415433 L109.648426,54.7547717 Z M107.623132,54.7547717 L108.801979,54.7547717 L108.801979,53.5415433 L107.623132,53.5415433 L107.623132,54.7547717 Z M109.679822,58.1450079 L109.679822,56.5744882 L108.597655,56.5744882 C107.763916,56.5744882 107.248871,57.2472441 107.248871,58.2531024 C107.248871,59.0868661 107.710343,59.8017008 108.427967,59.8017008 C109.209629,59.8017008 109.679822,59.0657008 109.679822,58.1450079 Z M112.881719,61.5984882 L111.588502,61.5984882 C110.654843,61.5984882 109.894112,60.9620157 109.648426,59.9967244 C109.274414,60.5387087 108.811946,60.8085669 108.277216,60.8085669 C106.906505,60.8085669 106.0623,59.7704567 106.0623,58.263937 C106.0623,56.64 106.906505,55.6331339 108.277216,55.6331339 L110.923205,55.6331339 L110.923205,59.0657008 C110.923205,59.9097953 111.318894,60.3656063 112.121238,60.3656063 L112.881719,60.3656063 L112.881719,61.5984882 Z" id="Fill-52" fill="#FEFEFE" mask="url(#mask-2)"></path>
                <path d="M118.118629,55.6862992 L119.286013,55.6862992 L119.286013,54.4846614 L118.118629,54.4846614 L118.118629,55.6862992 Z M120.423248,60.3656063 C120.433464,60.2461732 120.433464,60.1380787 120.433464,60.0186457 C120.433464,58.6325669 119.811274,57.744378 118.783926,57.744378 C117.584149,57.744378 116.329553,58.8490079 115.634604,60.3656063 L120.423248,60.3656063 Z M122.982274,61.5984882 L112.518921,61.5984882 L112.518921,60.3656063 L114.703686,60.3656063 L114.703686,54.6139213 L115.880041,54.6139213 L115.731035,58.5337953 C116.727236,57.2472441 117.755581,56.6619213 118.891569,56.6619213 C120.701327,56.6619213 121.632992,57.9074016 121.664886,60.3656063 L122.982274,60.3656063 L122.982274,61.5984882 Z" id="Fill-53" fill="#FEFEFE" mask="url(#mask-2)"></path>
                <path d="M125.6168,54.864126 L126.794401,54.864126 L126.794401,53.6511496 L125.6168,53.6511496 L125.6168,54.864126 Z M126.923474,59.4020787 C127.394165,59.0657008 127.630383,58.600315 127.630383,58.016 C127.630383,57.6357795 127.522241,57.3220787 127.297485,57.0741417 C127.052048,56.8020157 126.709183,56.6619213 126.270137,56.6619213 C125.83134,56.6619213 125.488724,56.8020157 125.241792,57.0741417 C125.015541,57.3220787 124.897931,57.6357795 124.897931,58.016 C124.897931,58.5894803 125.13365,59.0538583 125.606086,59.4020787 C125.798698,59.5421732 126.022955,59.6830236 126.270137,59.8017008 C126.515823,59.672189 126.74332,59.5421732 126.923474,59.4020787 Z M129.836827,61.5984882 L128.647764,61.5984882 C127.618921,61.5984882 126.826794,61.4047244 126.259672,61.0040945 C125.702766,61.4047244 124.909891,61.5984882 123.89251,61.5984882 L122.576866,61.5984882 L122.576866,60.3656063 L123.82897,60.3656063 C124.36345,60.3656063 124.695601,60.3220157 124.824922,60.2461732 C124.482307,59.9863937 124.212949,59.6510236 124.03155,59.2496378 C123.870832,58.8928504 123.784368,58.5133858 123.784368,58.1245984 C123.784368,57.8416378 123.82897,57.5929449 123.914936,57.376 C124.309629,56.3474646 125.189216,55.7074646 126.270137,55.7074646 C127.480629,55.7074646 128.765375,56.5422362 128.765375,58.0792441 C128.765375,58.4806299 128.680157,58.8593386 128.507728,59.2284724 C128.324833,59.6510236 128.058216,59.9863937 127.726564,60.2461732 C127.844175,60.3220157 128.176076,60.3656063 128.722018,60.3656063 L129.836827,60.3656063 L129.836827,61.5984882 Z" id="Fill-54" fill="#FEFEFE" mask="url(#mask-2)"></path>
                <path d="M138.061268,61.5984882 L129.461495,61.5984882 L129.461495,60.3656063 L135.651747,60.3656063 C135.651747,59.6946142 135.468354,59.119622 135.094841,58.6439055 C134.655297,58.0910866 134.033356,57.8204724 133.253189,57.8204724 C132.985326,57.8204724 132.685818,57.8854803 132.35292,58.0268346 C131.968693,58.1888504 131.644516,58.415622 131.389361,58.7081575 C131.270504,58.4806299 131.079886,58.1669291 130.810528,57.7547087 C131.142429,57.440252 131.518932,57.1812283 131.955486,56.9864567 C132.427673,56.7808504 132.899361,56.6820787 133.369803,56.6820787 C134.109354,56.6820787 134.76294,56.855937 135.319348,57.2023937 C136.294618,57.8093858 136.830843,58.8593386 136.927273,60.3656063 L138.061268,60.3656063 L138.061268,61.5984882 Z" id="Fill-55" fill="#FEFEFE" mask="url(#mask-2)"></path>
                <path d="M142.452976,60.0404409 C142.452976,59.6617323 142.356047,59.3253543 142.163933,59.0539843 C141.937932,58.7622047 141.628207,58.6105197 141.253199,58.6105197 C140.889653,58.6105197 140.599613,58.7513701 140.385074,59.0431496 C140.202179,59.2925984 140.10824,59.6186457 140.10824,59.9965984 C140.10824,60.7774488 140.578683,61.415685 141.318483,61.415685 C141.681531,61.415685 141.970574,61.2745827 142.174399,61.0039685 C142.356047,60.7555276 142.452976,60.4299843 142.452976,60.0404409 Z M144.754107,61.5986142 L143.224173,61.5986142 C142.762202,62.2285354 142.121075,62.5419843 141.284595,62.5419843 C140.461072,62.5419843 139.828168,62.2285354 139.368689,61.5986142 L137.729617,61.5986142 L137.729617,60.3657323 L138.886037,60.3657323 C138.874575,60.2460472 138.874575,60.1266142 138.874575,60.0074331 C138.874575,59.2822677 139.100328,58.6863622 139.538128,58.2207244 C139.99063,57.7548346 140.566971,57.5167244 141.284595,57.5167244 C142.003465,57.5167244 142.581052,57.7548346 143.019849,58.2426457 C143.459394,58.7286929 143.6839,59.3253543 143.6839,60.0512756 L143.6839,60.3657323 L144.754107,60.3657323 L144.754107,61.5986142 Z" id="Fill-56" fill="#FEFEFE" mask="url(#mask-2)"></path>
                <path d="M147.442555,59.6391055 C147.442555,60.9500976 146.844286,61.5984126 145.644259,61.5984126 L144.379198,61.5984126 L144.379198,60.3657827 L145.398822,60.3657827 C145.793266,60.3657827 146.040447,60.2460976 146.158058,60.0074835 C146.21188,59.8784756 146.243027,59.6186961 146.243027,59.2283969 L146.243027,54.6140976 L147.442555,54.6140976 L147.442555,59.6391055 Z" id="Fill-57" fill="#FEFEFE" mask="url(#mask-2)"></path>
                <polygon id="Fill-58" fill="#FEFEFE" mask="url(#mask-2)" points="148.545627 61.5984882 149.735188 61.5984882 149.735188 54.6028346 148.545627 54.6028346"></polygon>
                <path d="M50.5407715,34.3797417 L50.5397748,27.2394583 C50.5397748,25.5444661 49.1827682,24.169726 47.5035784,24.169726 L41.7817748,24.169726 L41.773552,18.0269858 L40.7648919,18.0269858 C39.086948,18.0269858 37.7274497,19.4034898 37.7274497,21.097978 L37.7316856,34.3797417 L41.7817748,34.3797417 L41.7817748,28.2627024 L46.4906823,28.2627024 L46.4906823,34.3797417 L50.5407715,34.3797417 Z" id="Fill-59" fill="#FEFEFE" mask="url(#mask-2)"></path>
                <path d="M50.5407715,34.3797417 L50.5397748,27.2394583 C50.5397748,25.5444661 49.1827682,24.169726 47.5035784,24.169726 L41.7817748,24.169726 L41.773552,18.0269858 L40.7648919,18.0269858 C39.086948,18.0269858 37.7274497,19.4034898 37.7274497,21.097978 L37.7316856,34.3797417 L41.7817748,34.3797417 L41.7817748,28.2627024 L46.4906823,28.2627024 L46.4906823,34.3797417 L50.5407715,34.3797417 Z" id="Stroke-60" stroke="#FEFEFE" stroke-width="0.793436364" mask="url(#mask-2)"></path>
                <path d="M36.2441114,34.4095244 L36.2401246,27.2395087 C36.2401246,25.5442646 34.8821213,24.1697764 33.2056724,24.1697764 L23.0819447,24.1697764 C21.4049975,24.1697764 20.0469942,25.5442646 20.0469942,27.2395087 L20.0469942,34.404737 L28.1399464,34.404737 C29.8193853,34.404737 31.1823721,33.0327685 31.1823721,31.3360126 L31.1823721,30.308989 L24.0906048,30.308989 L24.0975817,30.308989 L24.0975817,28.2632567 L24.0906048,28.2632567 L24.0906048,28.2625008 L32.1912814,28.2625008 L32.1912814,34.404737 L36.2441114,34.4095244 Z" id="Fill-61" fill="#FEFEFE" mask="url(#mask-2)"></path>
                <path d="M36.2441114,34.4095244 L36.2401246,27.2395087 C36.2401246,25.5442646 34.8821213,24.1697764 33.2056724,24.1697764 L23.0819447,24.1697764 C21.4049975,24.1697764 20.0469942,25.5442646 20.0469942,27.2395087 L20.0469942,34.404737 L28.1399464,34.404737 C29.8193853,34.404737 31.1823721,33.0327685 31.1823721,31.3360126 L31.1823721,30.308989 L24.0906048,30.308989 L24.0975817,30.308989 L24.0975817,28.2632567 L24.0906048,28.2632567 L24.0906048,28.2625008 L32.1912814,28.2625008 L32.1912814,34.404737 L36.2441114,34.4095244 Z" id="Stroke-62" stroke="#FEFEFE" stroke-width="0.793436364" mask="url(#mask-2)"></path>
                <path d="M80.1689898,34.4095244 L80.166498,27.2395087 C80.166498,25.5442646 78.8084947,24.1697764 77.1320459,24.1697764 L67.0058264,24.1697764 C65.3303743,24.1697764 63.9711251,25.5442646 63.9711251,27.2395087 L63.9711251,34.404737 L72.0650739,34.404737 C73.7445129,34.404737 75.1074997,33.0327685 75.1074997,31.3360126 L75.1074997,30.308989 L68.016729,30.308989 L68.0224601,30.308989 L68.0224601,28.2632567 L68.016729,28.2632567 L68.016729,28.2625008 L76.1176548,28.2625008 L76.1176548,34.404737 L80.1689898,34.4095244 Z" id="Fill-63" fill="#FEFEFE" mask="url(#mask-2)"></path>
                <path d="M80.1689898,34.4095244 L80.166498,27.2395087 C80.166498,25.5442646 78.8084947,24.1697764 77.1320459,24.1697764 L67.0058264,24.1697764 C65.3303743,24.1697764 63.9711251,25.5442646 63.9711251,27.2395087 L63.9711251,34.404737 L72.0650739,34.404737 C73.7445129,34.404737 75.1074997,33.0327685 75.1074997,31.3360126 L75.1074997,30.308989 L68.016729,30.308989 L68.0224601,30.308989 L68.0224601,28.2632567 L68.016729,28.2632567 L68.016729,28.2625008 L76.1176548,28.2625008 L76.1176548,34.404737 L80.1689898,34.4095244 Z" id="Stroke-64" stroke="#FEFEFE" stroke-width="0.793436364" mask="url(#mask-2)"></path>
                <path d="M116.251412,34.4095244 L116.248671,27.2395087 C116.248671,25.5442646 114.890667,24.1697764 113.213969,24.1697764 L103.087501,24.1697764 C101.411799,24.1697764 100.054294,25.5442646 100.054294,27.2395087 L100.054294,34.404737 L108.146748,34.404737 C109.826187,34.404737 111.188426,33.0327685 111.188426,31.3360126 L111.188426,30.308989 L104.099151,30.308989 L104.104882,30.308989 L104.104882,28.2632567 L104.099151,28.2632567 L104.099151,28.2625008 L112.198582,28.2625008 L112.198582,34.404737 L116.251412,34.4095244 Z" id="Fill-65" fill="#FEFEFE" mask="url(#mask-2)"></path>
                <path d="M116.251412,34.4095244 L116.248671,27.2395087 C116.248671,25.5442646 114.890667,24.1697764 113.213969,24.1697764 L103.087501,24.1697764 C101.411799,24.1697764 100.054294,25.5442646 100.054294,27.2395087 L100.054294,34.404737 L108.146748,34.404737 C109.826187,34.404737 111.188426,33.0327685 111.188426,31.3360126 L111.188426,30.308989 L104.099151,30.308989 L104.104882,30.308989 L104.104882,28.2632567 L104.099151,28.2632567 L104.099151,28.2625008 L112.198582,28.2625008 L112.198582,34.404737 L116.251412,34.4095244 Z" id="Stroke-66" stroke="#FEFEFE" stroke-width="0.793436364" mask="url(#mask-2)"></path>
                <path d="M11.4891814,34.3962457 L11.5193315,28.2633323 L11.5131021,28.2633323 L11.5131021,28.2625764 L13.2025081,28.2625764 L14.6051137,28.2625764 L14.6051137,34.4048126 L15.609787,34.4048126 C17.2892259,34.4048126 18.6527111,33.0328441 18.6527111,31.3358362 L18.6527111,30.3088126 L18.655452,30.3088126 L18.655452,28.2633323 L18.6484751,28.2633323 L18.6484751,28.2625764 L18.6591896,28.2625764 L18.6527111,27.2395843 C18.6527111,25.5443402 17.2947078,24.169852 15.6175114,24.169852 L12.193848,24.169852 C11.4906764,24.169852 10.8515427,24.4200567 10.3379932,24.8269858 C9.82294868,24.4200567 9.18381502,24.169852 8.48338432,24.169852 L0.395914026,24.1799307 L0.395914026,34.4048126 L4.44724901,34.4010331 L4.44724901,28.2633323 L4.43952459,28.2633323 L4.43952459,28.2625764 L7.46874406,28.2625764 L7.46874406,34.4048126 L11.4891814,34.3962457 Z M13.209485,28.2633323 L13.2025081,28.2625764 L13.2025081,28.2633323 L13.209485,28.2633323 Z" id="Fill-67" fill="#FEFEFE" mask="url(#mask-2)"></path>
                <path d="M11.4891814,34.3962457 L11.5193315,28.2633323 L11.5131021,28.2633323 L11.5131021,28.2625764 L13.2025081,28.2625764 L14.6051137,28.2625764 L14.6051137,34.4048126 L15.609787,34.4048126 C17.2892259,34.4048126 18.6527111,33.0328441 18.6527111,31.3358362 L18.6527111,30.3088126 L18.655452,30.3088126 L18.655452,28.2633323 L18.6484751,28.2633323 L18.6484751,28.2625764 L18.6591896,28.2625764 L18.6527111,27.2395843 C18.6527111,25.5443402 17.2947078,24.169852 15.6175114,24.169852 L12.193848,24.169852 C11.4906764,24.169852 10.8515427,24.4200567 10.3379932,24.8269858 C9.82294868,24.4200567 9.18381502,24.169852 8.48338432,24.169852 L0.395914026,24.1799307 L0.395914026,34.4048126 L4.44724901,34.4010331 L4.44724901,28.2633323 L4.43952459,28.2633323 L4.43952459,28.2625764 L7.46874406,28.2625764 L7.46874406,34.4048126 L11.4891814,34.3962457 Z M13.209485,28.2633323 L13.2025081,28.2625764 L13.2025081,28.2633323 L13.209485,28.2633323 Z" id="Stroke-68" stroke="#FEFEFE" stroke-width="0.793436364" mask="url(#mask-2)"></path>
                <path d="M52.3784365,34.4734992 L56.4257847,34.4548535 L56.4257847,28.3143811 L62.4989249,28.3143811 L62.4989249,27.2986961 C62.4989249,25.5989165 61.1439117,24.2214047 59.4657186,24.2214047 L58.449085,24.2214047 L58.449085,24.2183811 L56.4272797,24.2183811 L56.4272797,24.2246803 L56.4257847,24.2246803 L56.4257847,22.1164598 L62.4989249,22.1164598 L62.4989249,21.1005228 C62.4989249,19.4022551 61.1439117,18.0237354 59.4657186,18.0237354 L58.449085,18.0237354 L58.449085,18.0207118 L56.4272797,18.0207118 L56.4272797,18.027011 L56.4257847,18.027011 L56.4257847,18.0181921 L55.4153804,18.0237354 C53.7376856,18.0237354 52.3784365,19.3967118 52.3784365,21.0919559 L52.3784365,34.4734992 Z" id="Fill-69" fill="#FEFEFE" mask="url(#mask-2)"></path>
                <path d="M52.3784365,34.4734992 L56.4257847,34.4548535 L56.4257847,28.3143811 L62.4989249,28.3143811 L62.4989249,27.2986961 C62.4989249,25.5989165 61.1439117,24.2214047 59.4657186,24.2214047 L58.449085,24.2214047 L58.449085,24.2183811 L56.4272797,24.2183811 L56.4272797,24.2246803 L56.4257847,24.2246803 L56.4257847,22.1164598 L62.4989249,22.1164598 L62.4989249,21.1005228 C62.4989249,19.4022551 61.1439117,18.0237354 59.4657186,18.0237354 L58.449085,18.0237354 L58.449085,18.0207118 L56.4272797,18.0207118 L56.4272797,18.027011 L56.4257847,18.027011 L56.4257847,18.0181921 L55.4153804,18.0237354 C53.7376856,18.0237354 52.3784365,19.3967118 52.3784365,21.0919559 L52.3784365,34.4734992 Z" id="Stroke-70" stroke="#FEFEFE" stroke-width="0.793436364" mask="url(#mask-2)"></path>
                <path d="M82.276262,34.4048378 L95.4551234,34.4048378 C97.1305756,34.4048378 98.4898248,33.0303496 98.4898248,31.3358614 L98.471635,30.3128693 L92.1749848,30.3128693 L98.5304403,24.1698772 L85.330399,24.1698772 C83.6534518,24.1698772 82.2954485,25.5443654 82.2954485,27.2396094 L82.2954485,28.2820031 L88.8761581,28.2681449 L82.276262,34.4048378 Z" id="Fill-71" fill="#FEFEFE" mask="url(#mask-2)"></path>
                <path d="M82.276262,34.4048378 L95.4551234,34.4048378 C97.1305756,34.4048378 98.4898248,33.0303496 98.4898248,31.3358614 L98.471635,30.3128693 L92.1749848,30.3128693 L98.5304403,24.1698772 L85.330399,24.1698772 C83.6534518,24.1698772 82.2954485,25.5443654 82.2954485,27.2396094 L82.2954485,28.2820031 L88.8761581,28.2681449 L82.276262,34.4048378 Z" id="Stroke-72" stroke="#FEFEFE" stroke-width="0.793436364" mask="url(#mask-2)"></path>
                <path d="M140.858157,6.99048819 L131.243494,29.2128504 C133.958504,27.2653858 137.275769,26.1191811 140.858157,26.119937 L140.858157,6.99048819 Z" id="Fill-73" fill="#FEFEFE" mask="url(#mask-2)"></path>
                <path d="M131.59513,28.7827906 C134.210469,27.0290898 137.340854,25.9962709 140.70646,25.9665386 L140.70646,7.72301102 L131.59513,28.7827906 Z M140.718918,6.92905827 L141.009456,6.99053858 L140.994007,26.2059087 L140.807126,26.2724283 C137.276567,26.283515 134.008638,27.4161134 131.331253,29.3381291 L130.885729,29.6581291 L140.718918,6.92905827 Z" id="Fill-74" fill="#FEFEFE" mask="url(#mask-2)"></path>
                <path d="M150.121434,28.7827906 L141.009606,7.72351496 L141.009606,25.9665386 C144.375461,25.9962709 147.506343,27.0298457 150.121434,28.7827906 Z M150.38531,29.3381291 C147.695218,27.4075465 144.407604,26.2724283 140.858107,26.2724283 L140.706609,26.2724283 L140.706609,6.99053858 L140.996649,6.92905827 L150.831084,29.658885 L150.38531,29.3381291 Z" id="Fill-75" fill="#FEFEFE" mask="url(#mask-2)"></path>
                <path d="M129.28027,0.0613543307 L119.665855,22.2839685 C122.380367,20.336252 125.698131,19.1910551 129.280519,19.1910551 L129.28027,0.0613543307 Z" id="Fill-76" fill="#FEFEFE" mask="url(#mask-2)"></path>
                <path d="M120.017491,21.8536567 C122.632083,20.0999559 125.762468,19.067137 129.128572,19.0376567 L129.128572,0.793877165 L120.017491,21.8536567 Z M129.140782,0.000176377953 L129.431818,0.0614047244 L129.431818,19.1900976 L129.229239,19.3435465 C125.698928,19.3543811 122.43075,20.4869795 119.752867,22.4089953 L119.30809,22.7282394 L129.140782,0.000176377953 Z" id="Fill-77" fill="#FEFEFE" mask="url(#mask-2)"></path>
                <path d="M138.542824,21.8536567 L129.431494,0.793877165 L129.431992,19.0376567 C132.797598,19.067137 135.927982,20.1007118 138.542824,21.8536567 Z M138.807199,22.4082394 C136.117106,20.4784126 132.829991,19.3435465 129.280494,19.3435465 L129.128996,19.3435465 L129.128746,0.0614047244 L129.419035,0.000176377953 L139.253471,22.7289953 L138.807199,22.4082394 Z" id="Fill-78" fill="#FEFEFE" mask="url(#mask-2)"></path>
            </g>
        </g>
    </g>
</svg>