<?xml version="1.0" encoding="UTF-8"?>
<svg width="151px" height="64px" viewBox="0 0 151 64" version="1.1" xmlns="http://www.w3.org/2000/svg" xmlns:xlink="http://www.w3.org/1999/xlink">
    <!-- Generator: Sketch 49.3 (51167) - http://www.bohemiancoding.com/sketch -->
    <title>logo@2x</title>
    <desc>Created with Sketch.</desc>
    <defs>
        <polygon id="path-1" points="0 63.9653439 150.82475 63.9653439 150.82475 0 0 0"></polygon>
    </defs>
    <g id="Symbols" stroke="none" stroke-width="1" fill="none" fill-rule="evenodd">
        <g id="nav" transform="translate(-165.000000, -38.000000)">
            <g id="logo" transform="translate(165.000000, 38.000000)">
                <path d="M4.673075,49.7391557 L3.505075,49.7391557 L3.505075,45.9775747 C3.505075,45.8250372 3.417325,45.7117091 3.237325,45.6368316 C3.060325,45.5609423 2.758825,45.5224917 2.335325,45.5224917 C1.906325,45.5224917 1.605075,45.5581597 1.430325,45.6307605 C1.255825,45.7023494 1.169575,45.8164364 1.169575,45.9775747 L1.169575,49.7391557 L0.002325,49.7391557 L0.002325,45.8528632 C0.002325,45.2763573 0.228325,44.865796 0.677575,44.6209265 C1.046325,44.4208316 1.598075,44.3198988 2.335325,44.3198988 C3.060325,44.3198988 3.613575,44.4291794 3.997825,44.6449581 C4.447575,44.8989344 4.673075,45.3011478 4.673075,45.8528632 L4.673075,49.7391557 Z" id="Fill-1" fill="#3698D4"></path>
                <path d="M9.53405,47.964585 L8.69605,46.0850593 C8.67255,46.0347194 8.6383,46.0106877 8.59405,46.0106877 C8.5413,46.0106877 8.5048,46.0347194 8.4838,46.0850593 L7.64455,47.964585 L9.53405,47.964585 Z M11.6363,49.7391304 L10.35355,49.7391304 L9.9468,48.8514783 L7.2343,48.8514783 L6.82605,49.7391304 L5.54555,49.7391304 L7.78605,44.8763953 C7.9488,44.5194625 8.2163,44.3423874 8.59405,44.3423874 C8.77505,44.3423874 8.9348,44.3894387 9.0713,44.479747 C9.20505,44.572585 9.3153,44.7038735 9.39655,44.8763953 L11.6363,49.7391304 Z" id="Fill-3" fill="#3698D4"></path>
                <polygon id="Fill-5" fill="#3698D4" points="16.009275 45.6088538 13.972775 45.6088538 13.972775 49.7392569 12.805775 49.7392569 12.805775 45.6088538 10.762775 45.6088538 10.762775 44.4285217 16.009275 44.4285217"></polygon>
                <mask id="mask-2" fill="white">
                    <use xlink:href="#path-1"></use>
                </mask>
                <g id="Clip-8"></g>
                <polygon id="Fill-7" fill="#3698D4" mask="url(#mask-2)" points="16.77475 49.7391304 17.94325 49.7391304 17.94325 44.4283953 16.77475 44.4283953"></polygon>
                <path d="M23.2777,48.4356806 L23.2777,45.7249138 C23.2777,45.6937992 23.26445,45.6652142 23.2437,45.6432063 C23.22095,45.6201866 23.1937,45.6088032 23.1622,45.6088032 L20.4782,45.6088032 C20.4442,45.6088032 20.4192,45.6201866 20.3952,45.6432063 C20.37295,45.6652142 20.3627,45.6937992 20.3627,45.7249138 L20.3627,48.4356806 C20.3627,48.4723605 20.37295,48.5024632 20.3952,48.5244711 C20.4192,48.5474909 20.4442,48.5581154 20.4782,48.5581154 L23.1622,48.5581154 C23.2382,48.5581154 23.2777,48.5171352 23.2777,48.4356806 Z M24.4447,48.5601391 C24.4447,48.8793802 24.3317,49.1556174 24.10345,49.3896095 C23.87695,49.6230957 23.60295,49.7392063 23.27895,49.7392063 L20.35995,49.7392063 C20.03595,49.7392063 19.7607,49.6251194 19.5352,49.3956806 C19.3072,49.1659889 19.1952,48.8872221 19.1952,48.5601391 L19.1952,45.6075383 C19.1952,45.2796964 19.3072,45.0009296 19.5352,44.7722498 C19.7607,44.5428111 20.03595,44.4284711 20.35995,44.4284711 L23.27895,44.4284711 C23.60295,44.4284711 23.87695,44.5428111 24.10345,44.7722498 C24.3317,45.0009296 24.4447,45.2796964 24.4447,45.6075383 L24.4447,48.5601391 Z" id="Fill-9" fill="#3698D4" mask="url(#mask-2)"></path>
                <path d="M30.943225,49.7391557 L29.778725,49.7391557 C29.600475,49.7391557 29.444475,49.6895747 29.312225,49.5924364 C29.203225,49.5150292 29.088975,49.3850055 28.970975,49.2051478 L26.964725,46.1708395 C26.943725,46.1248 26.909975,46.1025391 26.862725,46.1025391 L26.862725,49.7391557 L25.695475,49.7391557 L25.695475,44.4284206 L26.859975,44.4284206 C27.032975,44.4284206 27.187975,44.4769897 27.326725,44.5756458 C27.439225,44.6565945 27.552225,44.7848474 27.665225,44.9558514 L29.667475,47.9904126 C29.686975,48.0410055 29.723475,48.0652901 29.776225,48.0652901 L29.776225,44.4284206 L30.943225,44.4284206 L30.943225,49.7391557 Z" id="Fill-10" fill="#3698D4" mask="url(#mask-2)"></path>
                <path d="M35.84715,47.964585 L35.0104,46.0850593 C34.9844,46.0347194 34.9509,46.0106877 34.90565,46.0106877 C34.8534,46.0106877 34.8179,46.0347194 34.79715,46.0850593 L33.95915,47.964585 L35.84715,47.964585 Z M37.94815,49.7391304 L36.6684,49.7391304 L36.2604,48.8514783 L33.5459,48.8514783 L33.1409,49.7391304 L31.85865,49.7391304 L34.09815,44.8763953 C34.26065,44.5194625 34.5309,44.3423874 34.90565,44.3423874 C35.08965,44.3423874 35.24815,44.3894387 35.38315,44.479747 C35.51965,44.572585 35.62715,44.7038735 35.70815,44.8763953 L37.94815,49.7391304 Z" id="Fill-11" fill="#3698D4" mask="url(#mask-2)"></path>
                <polygon id="Fill-12" fill="#3698D4" mask="url(#mask-2)" points="42.944075 49.7391557 38.863325 49.7391557 38.863325 44.4284206 40.029075 44.4284206 40.029075 48.5583178 42.944075 48.5583178"></polygon>
                <path d="M52.539775,46.4904095 C52.539775,46.8187573 52.426775,47.0967652 52.201775,47.3264569 C51.973525,47.5558957 51.699275,47.6712474 51.374025,47.6712474 L48.571775,47.6712474 L48.571775,49.7392316 L47.404775,49.7392316 L47.404775,46.4904095 L51.252275,46.4904095 C51.287525,46.4904095 51.316275,46.4792791 51.338775,46.4552474 C51.362025,46.4339984 51.373025,46.4061723 51.373025,46.3737929 L51.373025,45.7249391 C51.373025,45.6485439 51.332025,45.6088285 51.252275,45.6088285 L47.404775,45.6088285 L47.404775,44.4284964 L51.374025,44.4284964 C51.690275,44.4284964 51.962775,44.5428364 52.193775,44.7722751 C52.424525,45.0009549 52.539775,45.2797217 52.539775,45.6075636 L52.539775,46.4904095 Z" id="Fill-13" fill="#3698D4" mask="url(#mask-2)"></path>
                <path d="M57.40965,48.4356806 L57.40965,45.7249138 C57.40965,45.6937992 57.3994,45.6652142 57.3759,45.6432063 C57.35465,45.6201866 57.3259,45.6088032 57.2949,45.6088032 L54.6089,45.6088032 C54.5774,45.6088032 54.55115,45.6201866 54.5279,45.6432063 C54.5069,45.6652142 54.4949,45.6937992 54.4949,45.7249138 L54.4949,48.4356806 C54.4949,48.4723605 54.5069,48.5024632 54.5279,48.5244711 C54.55115,48.5474909 54.5774,48.5581154 54.6089,48.5581154 L57.2949,48.5581154 C57.3709,48.5581154 57.40965,48.5171352 57.40965,48.4356806 Z M58.5769,48.5601391 C58.5769,48.8793802 58.4629,49.1556174 58.23615,49.3896095 C58.0104,49.6230957 57.7349,49.7392063 57.41115,49.7392063 L54.49215,49.7392063 C54.16865,49.7392063 53.89315,49.6251194 53.66765,49.3956806 C53.44065,49.1659889 53.3279,48.8872221 53.3279,48.5601391 L53.3279,45.6075383 C53.3279,45.2796964 53.44065,45.0009296 53.66765,44.7722498 C53.89315,44.5428111 54.16865,44.4284711 54.49215,44.4284711 L57.41115,44.4284711 C57.7349,44.4284711 58.0104,44.5428111 58.23615,44.7722498 C58.4629,45.0009296 58.5769,45.2796964 58.5769,45.6075383 L58.5769,48.5601391 Z" id="Fill-14" fill="#3698D4" mask="url(#mask-2)"></path>
                <path d="M63.331525,46.3737929 L63.331525,45.7249391 C63.331525,45.6485439 63.292275,45.6088285 63.212025,45.6088285 L60.998775,45.6088285 L60.998775,46.4904095 L63.212025,46.4904095 C63.247775,46.4904095 63.278025,46.4792791 63.300275,46.4552474 C63.323775,46.4339984 63.331525,46.4061723 63.331525,46.3737929 Z M64.501275,49.7392316 L63.331525,49.7392316 L63.331525,47.7926704 C63.331525,47.7112158 63.292275,47.6712474 63.212025,47.6712474 L60.998775,47.6712474 L60.998775,49.7392316 L59.832025,49.7392316 L59.832025,44.4284964 L63.334275,44.4284964 C63.649025,44.4284964 63.924525,44.5428364 64.154025,44.7720221 C64.385775,45.0009549 64.501275,45.2797217 64.501275,45.605287 L64.501275,46.4904095 C64.501275,46.6047494 64.482775,46.7180775 64.445025,46.828117 C64.406775,46.9389154 64.351775,47.0223937 64.283775,47.0808285 C64.351775,47.1372395 64.406775,47.2207178 64.445025,47.3284806 C64.482775,47.4372553 64.501275,47.5505834 64.501275,47.6692237 L64.501275,49.7392316 Z" id="Fill-15" fill="#3698D4" mask="url(#mask-2)"></path>
                <polygon id="Fill-16" fill="#3698D4" mask="url(#mask-2)" points="70.512325 45.6088538 68.474325 45.6088538 68.474325 49.7392569 67.307825 49.7392569 67.307825 45.6088538 65.263325 45.6088538 65.263325 44.4285217 70.512325 44.4285217"></polygon>
                <polygon id="Fill-17" fill="#3698D4" mask="url(#mask-2)" points="75.699575 45.6088538 72.488325 45.6088538 72.488325 46.4904348 75.408075 46.4904348 75.408075 47.6712727 72.488325 47.6712727 72.488325 49.7392569 71.319825 49.7392569 71.319825 44.4285217 75.699575 44.4285217"></polygon>
                <path d="M80.546125,48.4356806 L80.546125,45.7249138 C80.546125,45.6937992 80.535375,45.6652142 80.514375,45.6432063 C80.491125,45.6201866 80.464625,45.6088032 80.431875,45.6088032 L77.747875,45.6088032 C77.714875,45.6088032 77.687625,45.6201866 77.666625,45.6432063 C77.644125,45.6652142 77.632625,45.6937992 77.632625,45.7249138 L77.632625,48.4356806 C77.632625,48.4723605 77.644125,48.5024632 77.666625,48.5244711 C77.687625,48.5474909 77.714875,48.5581154 77.747875,48.5581154 L80.431875,48.5581154 C80.509375,48.5581154 80.546125,48.5171352 80.546125,48.4356806 Z M81.712875,48.5601391 C81.712875,48.8793802 81.600125,49.1556174 81.374625,49.3896095 C81.146375,49.6230957 80.872375,49.7392063 80.548375,49.7392063 L77.630875,49.7392063 C77.307375,49.7392063 77.031875,49.6251194 76.805125,49.3956806 C76.577625,49.1659889 76.465125,48.8872221 76.465125,48.5601391 L76.465125,45.6075383 C76.465125,45.2796964 76.577625,45.0009296 76.805125,44.7722498 C77.031875,44.5428111 77.307375,44.4284711 77.630875,44.4284711 L80.548375,44.4284711 C80.872375,44.4284711 81.146375,44.5428111 81.374625,44.7722498 C81.600125,45.0009296 81.712875,45.2796964 81.712875,45.6075383 L81.712875,48.5601391 Z" id="Fill-18" fill="#3698D4" mask="url(#mask-2)"></path>
                <polygon id="Fill-19" fill="#3698D4" mask="url(#mask-2)" points="87.039175 49.7391557 82.957675 49.7391557 82.957675 44.4284206 84.124425 44.4284206 84.124425 48.5583178 87.039175 48.5583178"></polygon>
                <polygon id="Fill-20" fill="#3698D4" mask="url(#mask-2)" points="87.69875 49.7391304 88.86625 49.7391304 88.86625 44.4283953 87.69875 44.4283953"></polygon>
                <path d="M94.201275,48.4356806 L94.201275,45.7249138 C94.201275,45.6937992 94.191275,45.6652142 94.167025,45.6432063 C94.146275,45.6201866 94.120275,45.6088032 94.086025,45.6088032 L91.402025,45.6088032 C91.369275,45.6088032 91.342775,45.6201866 91.319775,45.6432063 C91.298775,45.6652142 91.286775,45.6937992 91.286775,45.7249138 L91.286775,48.4356806 C91.286775,48.4723605 91.298775,48.5024632 91.319775,48.5244711 C91.342775,48.5474909 91.369275,48.5581154 91.402025,48.5581154 L94.086025,48.5581154 C94.162275,48.5581154 94.201275,48.5171352 94.201275,48.4356806 Z M95.368775,48.5601391 C95.368775,48.8793802 95.255775,49.1556174 95.027525,49.3896095 C94.802025,49.6230957 94.526525,49.7392063 94.204275,49.7392063 L91.285525,49.7392063 C90.961525,49.7392063 90.686275,49.6251194 90.458775,49.3956806 C90.231025,49.1659889 90.119775,48.8872221 90.119775,48.5601391 L90.119775,45.6075383 C90.119775,45.2796964 90.231025,45.0009296 90.458775,44.7722498 C90.686275,44.5428111 90.961525,44.4284711 91.285525,44.4284711 L94.204275,44.4284711 C94.526525,44.4284711 94.802025,44.5428111 95.027525,44.7722498 C95.255775,45.0009296 95.368775,45.2796964 95.368775,45.6075383 L95.368775,48.5601391 Z" id="Fill-21" fill="#3698D4" mask="url(#mask-2)"></path>
                <path d="M105.4967,48.5601897 C105.4967,48.8794308 105.38395,49.1546561 105.1582,49.3894071 C104.9312,49.6231462 104.6552,49.7392569 104.3322,49.7392569 L100.24895,49.7392569 L100.24895,48.558166 L104.2142,48.558166 C104.29195,48.558166 104.32995,48.5171858 104.32995,48.4357312 L104.32995,47.7921897 C104.32995,47.7562688 104.31895,47.7266719 104.29695,47.704664 C104.2747,47.6813913 104.24845,47.6712727 104.2142,47.6712727 L101.4137,47.6712727 C101.08945,47.6712727 100.81345,47.5559209 100.5872,47.3264822 C100.36195,47.0967905 100.24895,46.8187826 100.24895,46.4904348 L100.24895,45.6075889 C100.24895,45.279747 100.36195,45.0009802 100.5872,44.7720474 C100.81545,44.5428617 101.0912,44.4285217 101.4137,44.4285217 L105.4967,44.4285217 L105.4967,45.6088538 L101.5317,45.6088538 C101.4987,45.6088538 101.4712,45.6199842 101.44895,45.6432569 C101.42645,45.6652648 101.41645,45.6935968 101.41645,45.7249644 L101.41645,46.3738182 C101.41645,46.4061976 101.42645,46.4340237 101.44895,46.4552727 C101.4712,46.4793043 101.4987,46.4904348 101.5317,46.4904348 L104.3322,46.4904348 C104.65745,46.4904348 104.9312,46.6047747 105.1582,46.8339605 C105.38395,47.0628933 105.4967,47.341913 105.4967,47.669249 L105.4967,48.5601897 Z" id="Fill-22" fill="#3698D4" mask="url(#mask-2)"></path>
                <polygon id="Fill-23" fill="#3698D4" mask="url(#mask-2)" points="111.2296 49.7391557 106.5616 49.7391557 106.5616 44.4284206 111.2296 44.4284206 111.2296 45.6087526 107.7286 45.6087526 107.7286 46.4903336 110.9371 46.4903336 110.9371 47.6714245 107.7286 47.6714245 107.7286 48.5583178 111.2296 48.5583178"></polygon>
                <path d="M116.730575,49.7391557 L113.228075,49.7391557 C112.902825,49.7391557 112.627575,49.6250688 112.402075,49.39563 C112.173825,49.1659383 112.060825,48.8871715 112.060825,48.5600885 L112.060825,45.6074877 C112.060825,45.2798988 112.173825,45.001132 112.402075,44.7721992 C112.627575,44.5427605 112.902825,44.4284206 113.228075,44.4284206 L116.730575,44.4284206 L116.730575,45.6087526 L113.343325,45.6087526 C113.312075,45.6087526 113.283325,45.620136 113.260825,45.6431557 C113.238325,45.6651636 113.228075,45.6937486 113.228075,45.7248632 L113.228075,48.43563 C113.228075,48.4723099 113.238325,48.5024126 113.260825,48.5244206 C113.283325,48.5476933 113.312075,48.5583178 113.343325,48.5583178 L116.730575,48.5583178 L116.730575,49.7391557 Z" id="Fill-24" fill="#3698D4" mask="url(#mask-2)"></path>
                <path d="M122.0924,48.5601897 C122.0924,48.8832253 121.9784,49.1607273 121.75015,49.3929486 C121.5204,49.6236522 121.2464,49.7392569 120.9279,49.7392569 L118.5884,49.7392569 C118.2659,49.7392569 117.99065,49.62517 117.7649,49.3957312 C117.5369,49.1660395 117.4239,48.8872727 117.4239,48.5601897 L117.4239,44.4285217 L118.59115,44.4285217 L118.59115,48.4357312 C118.59115,48.4721581 118.6014,48.5025138 118.6254,48.5245217 C118.6464,48.5475415 118.67515,48.558166 118.7054,48.558166 L120.8049,48.558166 C120.8849,48.558166 120.92515,48.5171858 120.92515,48.4357312 L120.92515,44.4285217 L122.0924,44.4285217 L122.0924,48.5601897 Z" id="Fill-25" fill="#3698D4" mask="url(#mask-2)"></path>
                <path d="M126.864125,46.3737929 L126.864125,45.7249391 C126.864125,45.6485439 126.823375,45.6088285 126.742375,45.6088285 L124.528625,45.6088285 L124.528625,46.4904095 L126.742375,46.4904095 C126.778625,46.4904095 126.807375,46.4792791 126.829875,46.4552474 C126.852375,46.4339984 126.864125,46.4061723 126.864125,46.3737929 Z M128.029875,49.7392316 L126.864125,49.7392316 L126.864125,47.7926704 C126.864125,47.7112158 126.823375,47.6712474 126.742375,47.6712474 L124.528625,47.6712474 L124.528625,49.7392316 L123.361375,49.7392316 L123.361375,44.4284964 L126.865375,44.4284964 C127.180125,44.4284964 127.455375,44.5428364 127.684875,44.7720221 C127.914125,45.0009549 128.029875,45.2797217 128.029875,45.605287 L128.029875,46.4904095 C128.032125,46.6047494 128.013875,46.7180775 127.974625,46.828117 C127.936625,46.9389154 127.882625,47.0223937 127.814875,47.0808285 C127.882625,47.1372395 127.936625,47.2207178 127.974625,47.3284806 C128.013875,47.4372553 128.032125,47.5505834 128.029875,47.6692237 L128.029875,49.7392316 Z" id="Fill-26" fill="#3698D4" mask="url(#mask-2)"></path>
                <polygon id="Fill-27" fill="#3698D4" mask="url(#mask-2)" points="129.28875 49.7391304 130.45525 49.7391304 130.45525 44.4283953 129.28875 44.4283953"></polygon>
                <polygon id="Fill-28" fill="#3698D4" mask="url(#mask-2)" points="136.51865 45.6088538 134.48115 45.6088538 134.48115 49.7392569 133.31415 49.7392569 133.31415 45.6088538 131.2699 45.6088538 131.2699 44.4285217 136.51865 44.4285217"></polygon>
                <polygon id="Fill-29" fill="#3698D4" mask="url(#mask-2)" points="137.28425 49.7391304 138.45175 49.7391304 138.45175 44.4283953 137.28425 44.4283953"></polygon>
                <polygon id="Fill-30" fill="#3698D4" mask="url(#mask-2)" points="144.4022 49.7391557 139.7367 49.7391557 139.7367 44.4284206 144.4022 44.4284206 144.4022 45.6087526 140.90345 45.6087526 140.90345 46.4903336 144.11245 46.4903336 144.11245 47.6714245 140.90345 47.6714245 140.90345 48.5583178 144.4022 48.5583178"></polygon>
                <path d="M149.8336,48.5601897 C149.8336,48.8832253 149.7181,49.1607273 149.48985,49.3929486 C149.2616,49.6236522 148.9876,49.7392569 148.66785,49.7392569 L145.1641,49.7392569 L145.1641,48.558166 L148.5446,48.558166 C148.62435,48.558166 148.66635,48.5171858 148.66635,48.4357312 L148.66635,47.7921897 C148.66635,47.7112411 148.62435,47.6712727 148.5446,47.6712727 L146.3296,47.6712727 C146.0046,47.6712727 145.7291,47.5559209 145.5036,47.3264822 C145.2781,47.0967905 145.1641,46.8187826 145.1641,46.4904348 L145.1641,45.6075889 C145.1641,45.279747 145.2781,45.0009802 145.5036,44.7720474 C145.7291,44.5428617 146.0046,44.4285217 146.3296,44.4285217 L149.24835,44.4285217 L149.24835,45.6088538 L146.44785,45.6088538 C146.41485,45.6088538 146.3876,45.6199842 146.36685,45.6432569 C146.3426,45.6652648 146.33085,45.6935968 146.33085,45.7249644 L146.33085,46.3738182 C146.33085,46.4061976 146.3426,46.4340237 146.36685,46.4552727 C146.3876,46.4793043 146.41485,46.4904348 146.44785,46.4904348 L148.6691,46.4904348 C148.9876,46.4904348 149.26335,46.6047747 149.48985,46.8367431 C149.7181,47.0687115 149.8336,47.3462134 149.8336,47.669249 L149.8336,48.5601897 Z" id="Fill-31" fill="#3698D4" mask="url(#mask-2)"></path>
                <path d="M3.60325,54.7121581 L4.785,54.7121581 L4.785,53.4941344 L3.60325,53.4941344 L3.60325,54.7121581 Z M1.571,54.7121581 L2.75375,54.7121581 L2.75375,53.4941344 L1.571,53.4941344 L1.571,54.7121581 Z M3.63475,58.1152885 L3.63475,56.5385613 L2.5505,56.5385613 C1.71225,56.5385613 1.196,57.2137233 1.196,58.2235573 C1.196,59.0613755 1.65875,59.7787826 2.3785,59.7787826 C3.16275,59.7787826 3.63475,59.0401265 3.63475,58.1152885 Z M6.8485,61.5829249 L5.54775,61.5829249 C4.613,61.5829249 3.8495,60.9436838 3.60325,59.9743241 C3.228,60.5189565 2.76525,60.7896285 2.22625,60.7896285 C0.85225,60.7896285 0.00225,59.747415 0.00225,58.2346877 C0.00225,56.6048379 0.85225,55.5937391 2.22625,55.5937391 L4.88025,55.5937391 L4.88025,59.0401265 C4.88025,59.8875573 5.27925,60.34517 6.08575,60.34517 L6.8485,60.34517 L6.8485,61.5829249 Z" id="Fill-32" fill="#3698D4" mask="url(#mask-2)"></path>
                <path d="M8.49175,63.9653439 L9.6745,63.9653439 L9.6745,62.7468142 L8.49175,62.7468142 L8.49175,63.9653439 Z M11.46825,61.5829249 L6.51425,61.5829249 L6.51425,60.34517 L7.6655,60.34517 C8.01975,60.34517 8.26625,60.2252648 8.39475,59.9743241 C8.48125,59.811668 8.52575,59.5291067 8.52575,59.1483953 L8.52575,56.647083 L9.7165,56.647083 L9.7165,59.0841423 C9.7165,59.7241423 9.62975,60.1382451 9.4485,60.34517 L11.46825,60.34517 L11.46825,61.5829249 Z M6.462,63.9653439 L7.64175,63.9653439 L7.64175,62.7468142 L6.462,62.7468142 L6.462,63.9653439 Z" id="Fill-33" fill="#3698D4" mask="url(#mask-2)"></path>
                <path d="M14.2296,59.6152664 C14.2296,60.9316933 13.6266,61.5830767 12.4256,61.5830767 L11.1561,61.5830767 L11.1561,60.3450688 L12.17635,60.3450688 C12.57485,60.3450688 12.82285,60.2251636 12.9396,59.9856063 C12.99485,59.8555826 13.02735,59.5947763 13.02735,59.2034403 L13.02735,54.5709028 L14.2296,54.5709028 L14.2296,59.6152664 Z" id="Fill-34" fill="#3698D4" mask="url(#mask-2)"></path>
                <path d="M18.506825,61.5830514 L17.099075,61.5830514 C16.519075,61.5830514 16.077575,61.3991462 15.766325,61.0191937 C15.475325,60.6703557 15.336325,60.2031304 15.336325,59.6061344 L15.336325,54.5708775 L16.529575,54.5708775 L16.529575,59.1166482 C16.529575,59.6486324 16.648075,59.9962055 16.873075,60.1593676 C17.032825,60.2787668 17.346575,60.3450435 17.799075,60.3450435 L18.506825,60.3450435 L18.506825,61.5830514 Z" id="Fill-35" fill="#3698D4" mask="url(#mask-2)"></path>
                <path d="M22.8369,60.0179352 C22.8369,59.6379826 22.7399,59.3002751 22.5474,59.0283383 C22.3204,58.7348996 22.00815,58.5831209 21.63315,58.5831209 C21.2689,58.5831209 20.9789,58.7242751 20.7624,59.0169549 C20.5814,59.2678957 20.4844,59.5949787 20.4844,59.9741723 C20.4844,60.7578561 20.9564,61.3991209 21.69865,61.3991209 C22.06315,61.3991209 22.3534,61.2572079 22.5564,60.98603 C22.7399,60.7363542 22.8369,60.4095241 22.8369,60.0179352 Z M25.1474,61.5830261 L23.61065,61.5830261 C23.1489,62.2146783 22.5039,62.529619 21.66565,62.529619 C20.8384,62.529619 20.2039,62.2146783 19.7424,61.5830261 L18.0979,61.5830261 L18.0979,60.3450182 L19.25965,60.3450182 C19.24815,60.225113 19.24815,60.1049549 19.24815,59.9855557 C19.24815,59.2572711 19.4724,58.6587573 19.9154,58.191785 C20.3649,57.7238008 20.94465,57.4850024 21.66565,57.4850024 C22.3859,57.4850024 22.96565,57.7238008 23.4059,58.2135399 C23.84665,58.7012553 24.07215,59.3002751 24.07215,60.0290656 L24.07215,60.3450182 L25.1474,60.3450182 L25.1474,61.5830261 Z" id="Fill-36" fill="#3698D4" mask="url(#mask-2)"></path>
                <path d="M27.843375,59.6152664 C27.843375,60.9316933 27.243125,61.5830767 26.039125,61.5830767 L24.769875,61.5830767 L24.769875,60.3450688 L25.792375,60.3450688 C26.189875,60.3450688 26.437625,60.2251636 26.554625,59.9856063 C26.608125,59.8555826 26.639625,59.5947763 26.639625,59.2034403 L26.639625,54.5709028 L27.843375,54.5709028 L27.843375,59.6152664 Z" id="Fill-37" fill="#3698D4" mask="url(#mask-2)"></path>
                <polygon id="Fill-38" fill="#3698D4" mask="url(#mask-2)" points="28.95025 61.5829249 30.1435 61.5829249 30.1435 54.5593676 28.95025 54.5593676"></polygon>
                <path d="M38.75075,55.6473676 L39.9305,55.6473676 L39.9305,54.4407273 L38.75075,54.4407273 L38.75075,55.6473676 Z M39.448,58.6700395 C39.448,57.7783399 38.964,57.1808379 38.33075,57.1808379 C37.70675,57.1808379 37.224,57.8003478 37.224,58.6050277 C37.224,59.4309565 37.6545,60.0292174 38.34175,60.0292174 C39.018,60.0292174 39.448,59.4522055 39.448,58.6700395 Z M36.7085,55.6473676 L37.89025,55.6473676 L37.89025,54.4407273 L36.7085,54.4407273 L36.7085,55.6473676 Z M40.577,59.8222925 C40.577,61.8232411 39.018,63.3898498 37.02,63.3898498 C34.94525,63.3898498 33.4085,61.8338656 33.4085,59.8222925 L33.4085,57.8003478 L34.548,57.8003478 L34.548,59.6922688 C34.548,61.2679842 35.50475,62.2902134 36.98825,62.2902134 C38.074,62.2902134 39.05225,61.6282055 39.37325,60.6489802 C39.0705,60.8559051 38.72825,60.9543083 38.34175,60.9543083 C36.97775,60.9543083 36.10725,60.0626087 36.10725,58.6255178 C36.10725,57.1927273 36.94475,56.2997628 38.30975,56.2997628 C39.6735,56.2997628 40.56525,57.1482055 40.56525,58.5936443 C40.577,58.6487905 40.577,59.0613755 40.577,59.8222925 Z" id="Fill-39" fill="#3698D4" mask="url(#mask-2)"></path>
                <polygon id="Fill-40" fill="#3698D4" mask="url(#mask-2)" points="41.6825 61.5829249 42.87575 61.5829249 42.87575 54.5593676 41.6825 54.5593676"></polygon>
                <path d="M46.367675,56.6471589 L46.367675,60.6169296 C46.367675,62.5728506 45.519425,63.3896727 43.671675,63.3896727 L43.671675,62.3446767 C44.669425,62.3446767 45.165425,61.8458308 45.165425,60.8008348 L45.165425,56.6471589 L46.367675,56.6471589 Z" id="Fill-41" fill="#3698D4" mask="url(#mask-2)"></path>
                <path d="M50.7722,59.1596269 C50.7722,58.3111842 50.32245,57.7458087 49.63395,57.7458087 C48.99945,57.7458087 48.5827,58.3663304 48.5827,59.1044806 C48.5827,59.8661565 49.0337,60.4859194 49.68645,60.4859194 C50.33295,60.4859194 50.7722,59.876781 50.7722,59.1596269 Z M52.0102,61.4317534 C52.0102,62.7249075 51.2362,63.3775557 49.6762,63.3775557 L49.6762,62.4104727 C50.4287,62.3884648 50.80645,61.8769708 50.8272,61.0297929 C50.6227,61.3993739 50.23595,61.5830261 49.68645,61.5830261 C48.30345,61.5830261 47.37745,60.552196 47.37745,59.1044806 C47.37745,57.637034 48.33595,56.6365597 49.68645,56.6365597 C51.10795,56.6365597 52.0102,57.7015399 52.0102,59.1378719 L52.0102,61.4317534 Z" id="Fill-42" fill="#3698D4" mask="url(#mask-2)"></path>
                <path d="M59.8413,61.5830514 L53.1153,61.5830514 L53.1153,60.3450435 L54.76005,60.3450435 L53.4053,55.3436838 L54.67455,55.3436838 L56.0173,60.3450435 C56.3503,60.3450435 56.58605,60.2681423 56.74755,60.1049802 C56.95255,59.8985613 57.04805,59.5509881 57.04805,59.061249 L57.04805,54.5708775 L58.2203,54.5708775 L58.2203,59.8768063 C58.2203,60.0414862 58.2098,60.1925059 58.1773,60.3450435 L59.8413,60.3450435 L59.8413,61.5830514 Z M54.97605,54.8215652 L53.1153,54.8215652 L53.1153,54.3206957 L53.5453,54.3206957 C53.4813,54.1150356 53.4498,53.9951304 53.4498,53.941502 C53.4498,53.428996 53.8248,53.059668 54.28655,53.059668 C54.58805,53.059668 54.81355,53.22283 54.9633,53.5385296 L54.57755,53.7449486 C54.54605,53.5810277 54.43705,53.5053913 54.27605,53.5053913 C54.05055,53.5053913 53.91155,53.7123162 53.91155,53.9187352 C53.91155,54.1031462 53.97455,54.2445534 54.10405,54.3206957 L54.97605,54.3206957 L54.97605,54.8215652 Z" id="Fill-43" fill="#3698D4" mask="url(#mask-2)"></path>
                <path d="M62.51855,59.6152664 C62.51855,60.9316933 61.91555,61.5830767 60.7118,61.5830767 L59.44505,61.5830767 L59.44505,60.3450688 L60.4653,60.3450688 C60.8638,60.3450688 61.1103,60.2251636 61.2283,59.9856063 C61.2823,59.8555826 61.3153,59.5947763 61.3153,59.2034403 L61.3153,54.5709028 L62.51855,54.5709028 L62.51855,59.6152664 Z" id="Fill-44" fill="#3698D4" mask="url(#mask-2)"></path>
                <path d="M69.38475,54.7121581 L70.5675,54.7121581 L70.5675,53.4941344 L69.38475,53.4941344 L69.38475,54.7121581 Z M67.3535,54.7121581 L68.53475,54.7121581 L68.53475,53.4941344 L67.3535,53.4941344 L67.3535,54.7121581 Z M69.41575,58.1152885 L69.41575,56.5385613 L68.33025,56.5385613 C67.4935,56.5385613 66.977,57.2137233 66.977,58.2235573 C66.977,59.0613755 67.4385,59.7787826 68.16,59.7787826 C68.94375,59.7787826 69.41575,59.0401265 69.41575,58.1152885 Z M72.6285,61.5829249 L71.32875,61.5829249 C70.3945,61.5829249 69.631,60.9436838 69.38475,59.9743241 C69.0065,60.5189565 68.5465,60.7896285 68.00775,60.7896285 C66.63325,60.7896285 65.78375,59.747415 65.78375,58.2346877 C65.78375,56.6048379 66.63325,55.5937391 68.00775,55.5937391 L70.66125,55.5937391 L70.66125,59.0401265 C70.66125,59.8875573 71.06025,60.34517 71.865,60.34517 L72.6285,60.34517 L72.6285,61.5829249 Z" id="Fill-45" fill="#3698D4" mask="url(#mask-2)"></path>
                <path d="M74.27275,63.9653439 L75.4555,63.9653439 L75.4555,62.7468142 L74.27275,62.7468142 L74.27275,63.9653439 Z M77.2495,61.5829249 L72.2955,61.5829249 L72.2955,60.34517 L73.447,60.34517 C73.80075,60.34517 74.0475,60.2252648 74.17575,59.9743241 C74.2625,59.811668 74.30575,59.5291067 74.30575,59.1483953 L74.30575,56.647083 L75.4975,56.647083 L75.4975,59.0841423 C75.4975,59.7241423 75.4125,60.1382451 75.23,60.34517 L77.2495,60.34517 L77.2495,61.5829249 Z M72.24325,63.9653439 L73.426,63.9653439 L73.426,62.7468142 L72.24325,62.7468142 L72.24325,63.9653439 Z" id="Fill-46" fill="#3698D4" mask="url(#mask-2)"></path>
                <path d="M78.93575,55.6473676 L80.1185,55.6473676 L80.1185,54.4407273 L78.93575,54.4407273 L78.93575,55.6473676 Z M81.92525,61.5829249 L76.958,61.5829249 L76.958,60.34517 L78.07575,60.34517 C78.432,60.34517 78.66825,60.2252648 78.79675,59.9743241 C78.88325,59.811668 78.92525,59.5291067 78.92525,59.1483953 L78.92525,56.647083 L80.1185,56.647083 L80.1185,59.0841423 C80.1185,59.7241423 80.032,60.1382451 79.86,60.34517 L81.92525,60.34517 L81.92525,61.5829249 Z" id="Fill-47" fill="#3698D4" mask="url(#mask-2)"></path>
                <path d="M89.31725,60.3451447 L89.31725,59.9963067 C89.31725,58.6163858 88.70475,57.7133028 87.661,57.7133028 C86.44775,57.7133028 85.234,58.8007968 84.502,60.3451447 L89.31725,60.3451447 Z M90.4985,61.5831526 L81.5895,61.5831526 L81.5895,60.3451447 L83.56725,60.3451447 L83.56725,54.5707257 L84.7495,54.5707257 L84.62175,58.5060933 C85.61,57.213951 86.642,56.6268206 87.76975,56.6268206 C89.6275,56.6268206 90.552,57.9098561 90.552,60.4524016 C90.552,60.812117 90.53,61.1809391 90.4985,61.5831526 Z" id="Fill-48" fill="#3698D4" mask="url(#mask-2)"></path>
                <path d="M95.001575,60.3451447 L95.001575,58.8551842 C94.935575,58.2134134 94.571575,57.7565597 93.947075,57.7565597 C93.238825,57.7565597 92.788075,58.2566704 92.788075,58.9852079 C92.788075,59.7355004 93.291825,60.3451447 93.936575,60.3451447 L95.001575,60.3451447 Z M97.676075,61.5831526 L96.215325,61.5831526 C96.053325,62.7799273 95.270075,63.3774292 93.872075,63.3774292 L93.872075,62.4209708 C94.496325,62.4209708 94.893575,62.1601644 95.065575,61.5831526 L93.915575,61.5831526 C92.614825,61.5831526 91.560575,60.4857929 91.560575,59.0514846 C91.560575,57.6159115 92.604575,56.6364332 93.969325,56.6364332 C95.280825,56.6364332 96.203825,57.6589154 96.203825,59.084117 L96.203825,60.3451447 L97.676075,60.3451447 L97.676075,61.5831526 Z" id="Fill-49" fill="#3698D4" mask="url(#mask-2)"></path>
                <path d="M100.44835,59.6152664 C100.44835,60.9316933 99.84785,61.5830767 98.64385,61.5830767 L97.37485,61.5830767 L97.37485,60.3450688 L98.3976,60.3450688 C98.7951,60.3450688 99.04135,60.2251636 99.15935,59.9856063 C99.21335,59.8555826 99.24485,59.5947763 99.24485,59.2034403 L99.24485,54.5709028 L100.44835,54.5709028 L100.44835,59.6152664 Z" id="Fill-50" fill="#3698D4" mask="url(#mask-2)"></path>
                <polygon id="Fill-51" fill="#3698D4" mask="url(#mask-2)" points="101.5555 61.5829249 102.74825 61.5829249 102.74825 54.5593676 101.5555 54.5593676"></polygon>
                <path d="M109.614,54.7121581 L110.79425,54.7121581 L110.79425,53.4941344 L109.614,53.4941344 L109.614,54.7121581 Z M107.582,54.7121581 L108.76475,54.7121581 L108.76475,53.4941344 L107.582,53.4941344 L107.582,54.7121581 Z M109.6455,58.1152885 L109.6455,56.5385613 L108.55975,56.5385613 C107.72325,56.5385613 107.20675,57.2137233 107.20675,58.2235573 C107.20675,59.0613755 107.6695,59.7787826 108.3895,59.7787826 C109.17375,59.7787826 109.6455,59.0401265 109.6455,58.1152885 Z M112.858,61.5829249 L111.5605,61.5829249 C110.624,61.5829249 109.8605,60.9436838 109.61425,59.9743241 C109.239,60.5189565 108.77475,60.7896285 108.2385,60.7896285 C106.86325,60.7896285 106.016,59.747415 106.016,58.2346877 C106.016,56.6048379 106.86325,55.5937391 108.2385,55.5937391 L110.893,55.5937391 L110.893,59.0401265 C110.893,59.8875573 111.29025,60.34517 112.095,60.34517 L112.858,60.34517 L112.858,61.5829249 Z" id="Fill-52" fill="#3698D4" mask="url(#mask-2)"></path>
                <path d="M118.11225,55.6473676 L119.2835,55.6473676 L119.2835,54.4407273 L118.11225,54.4407273 L118.11225,55.6473676 Z M120.4245,60.34517 C120.43475,60.2252648 120.43475,60.1167431 120.43475,59.996332 C120.43475,58.6050277 119.81075,57.7133281 118.78,57.7133281 C117.576,57.7133281 116.31725,58.8218182 115.62,60.34517 L120.4245,60.34517 Z M122.992,61.5829249 L112.494,61.5829249 L112.494,60.34517 L114.68625,60.34517 L114.68625,54.570751 L115.86625,54.570751 L115.717,58.5061186 C116.71625,57.2137233 117.748,56.6268458 118.88775,56.6268458 C120.7035,56.6268458 121.63825,57.8767431 121.67025,60.34517 L122.992,60.34517 L122.992,61.5829249 Z" id="Fill-53" fill="#3698D4" mask="url(#mask-2)"></path>
                <path d="M125.63525,54.8216917 L126.81675,54.8216917 L126.81675,53.603668 L125.63525,53.603668 L125.63525,54.8216917 Z M126.9465,59.3770751 C127.4185,59.0401265 127.65575,58.5723953 127.65575,57.9862767 C127.65575,57.6045534 127.547,57.2896126 127.32175,57.0399368 C127.07525,56.7672411 126.73125,56.6268458 126.291,56.6268458 C125.8505,56.6268458 125.50675,56.7672411 125.25925,57.0399368 C125.032,57.2896126 124.914,57.6045534 124.914,57.9862767 C124.914,58.5617708 125.1505,59.0282372 125.62475,59.3770751 C125.81775,59.5179763 126.04275,59.6596364 126.291,59.7787826 C126.53725,59.6485059 126.7655,59.5179763 126.9465,59.3770751 Z M129.86925,61.5829249 L128.6765,61.5829249 C127.64425,61.5829249 126.84925,61.3878893 126.2805,60.9859289 C125.7215,61.3878893 124.92625,61.5829249 123.9055,61.5829249 L122.58525,61.5829249 L122.58525,60.34517 L123.8415,60.34517 C124.37775,60.34517 124.711,60.3014071 124.84075,60.2252648 C124.497,59.9644585 124.22675,59.6275099 124.04475,59.2247905 C123.8835,58.8665929 123.79675,58.4856285 123.79675,58.0947984 C123.79675,57.8109723 123.8415,57.5610435 123.92775,57.343747 C124.32375,56.3111462 125.20625,55.6686166 126.291,55.6686166 C127.50525,55.6686166 128.79425,56.5066877 128.79425,58.0497708 C128.79425,58.4524901 128.70875,58.8324427 128.53575,59.2035415 C128.3525,59.6275099 128.08475,59.9644585 127.752,60.2252648 C127.87,60.3014071 128.203,60.34517 128.75075,60.34517 L129.86925,60.34517 L129.86925,61.5829249 Z" id="Fill-54" fill="#3698D4" mask="url(#mask-2)"></path>
                <path d="M138.12095,61.5830514 L129.4927,61.5830514 L129.4927,60.3450435 L135.70345,60.3450435 C135.70345,59.6711462 135.51945,59.0938814 135.1447,58.6162846 C134.7037,58.0615336 134.0797,57.7895968 133.29695,57.7895968 C133.0282,57.7895968 132.7277,57.8546087 132.3937,57.9967747 C132.0082,58.1594308 131.68295,58.3876047 131.42695,58.6812964 C131.3077,58.4526166 131.11645,58.1374229 130.8462,57.7238261 C131.1792,57.4081265 131.55695,57.148332 131.99495,56.9525375 C132.4687,56.7461186 132.94195,56.6472095 133.41395,56.6472095 C134.15595,56.6472095 134.8117,56.820996 135.36995,57.1693281 C136.34845,57.7784664 136.88645,58.8325692 136.9832,60.3450435 L138.12095,60.3450435 L138.12095,61.5830514 Z" id="Fill-55" fill="#3698D4" mask="url(#mask-2)"></path>
                <path d="M142.5272,60.0179352 C142.5272,59.6379826 142.42995,59.3002751 142.2372,59.0283383 C142.01045,58.7348996 141.6997,58.5831209 141.32345,58.5831209 C140.9587,58.5831209 140.6677,58.7242751 140.45245,59.0169549 C140.26895,59.2678957 140.1747,59.5949787 140.1747,59.9741723 C140.1747,60.7578561 140.6467,61.3991209 141.38895,61.3991209 C141.7532,61.3991209 142.0432,61.2572079 142.2477,60.98603 C142.42995,60.7363542 142.5272,60.4095241 142.5272,60.0179352 Z M144.83595,61.5830261 L143.30095,61.5830261 C142.83745,62.2146783 142.1942,62.529619 141.35495,62.529619 C140.5287,62.529619 139.8937,62.2146783 139.4327,61.5830261 L137.7882,61.5830261 L137.7882,60.3450182 L138.94845,60.3450182 C138.93695,60.225113 138.93695,60.1049549 138.93695,59.9855557 C138.93695,59.2572711 139.16345,58.6587573 139.6027,58.191785 C140.0567,57.7238008 140.63495,57.4850024 141.35495,57.4850024 C142.0762,57.4850024 142.6557,57.7238008 143.09595,58.2135399 C143.53695,58.7012553 143.7622,59.3002751 143.7622,60.0290656 L143.7622,60.3450182 L144.83595,60.3450182 L144.83595,61.5830261 Z" id="Fill-56" fill="#3698D4" mask="url(#mask-2)"></path>
                <path d="M147.5333,59.6152664 C147.5333,60.9316933 146.93305,61.5830767 145.72905,61.5830767 L144.4598,61.5830767 L144.4598,60.3450688 L145.4828,60.3450688 C145.87855,60.3450688 146.12655,60.2251636 146.24455,59.9856063 C146.29855,59.8555826 146.3298,59.5947763 146.3298,59.2034403 L146.3298,54.5709028 L147.5333,54.5709028 L147.5333,59.6152664 Z" id="Fill-57" fill="#3698D4" mask="url(#mask-2)"></path>
                <polygon id="Fill-58" fill="#3698D4" mask="url(#mask-2)" points="148.64 61.5829249 149.8335 61.5829249 149.8335 54.5593676 148.64 54.5593676"></polygon>
                <path d="M50.310775,34.2565945 L50.309775,27.0878356 C50.309775,25.3861439 48.948275,24.0062229 47.263275,24.0062229 L41.522775,24.0062229 L41.514525,17.8392032 L40.502525,17.8392032 C38.819025,17.8392032 37.455025,19.2211478 37.455025,20.9220806 L37.459275,34.2565945 L41.522775,34.2565945 L41.522775,28.1148711 L46.247275,28.1148711 L46.247275,34.2565945 L50.310775,34.2565945 Z" id="Fill-59" fill="#0054A3" mask="url(#mask-2)"></path>
                <path d="M35.966675,34.285736 L35.962925,27.0878862 C35.962925,25.3861945 34.600425,24.0062735 32.918175,24.0062735 L22.760925,24.0062735 C21.078675,24.0062735 19.716175,25.3861945 19.716175,27.0878862 L19.716175,34.2816885 L27.835675,34.2816885 C29.520675,34.2816885 30.888175,32.9037913 30.888175,31.2003289 L30.888175,30.1692458 L23.772925,30.1692458 L23.779925,30.1692458 L23.779925,28.1159336 L23.772925,28.1159336 L23.772925,28.1146688 L31.900675,28.1146688 L31.900675,34.2816885 L35.966675,34.285736 Z" id="Fill-60" fill="#0054A3" mask="url(#mask-2)"></path>
                <path d="M80.036975,34.285736 L80.034725,27.0878862 C80.034725,25.3861945 78.672225,24.0062735 76.989975,24.0062735 L66.830225,24.0062735 C65.149225,24.0062735 63.785475,25.3861945 63.785475,27.0878862 L63.785475,34.2816885 L71.906225,34.2816885 C73.591225,34.2816885 74.958725,32.9037913 74.958725,31.2003289 L74.958725,30.1692458 L67.844725,30.1692458 L67.850225,30.1692458 L67.850225,28.1159336 L67.844725,28.1159336 L67.844725,28.1146688 L75.972475,28.1146688 L75.972475,34.2816885 L80.036975,34.285736 Z" id="Fill-61" fill="#0054A3" mask="url(#mask-2)"></path>
                <path d="M116.238875,34.285736 L116.236125,27.0878862 C116.236125,25.3861945 114.873625,24.0062735 113.191375,24.0062735 L103.031375,24.0062735 C101.350125,24.0062735 99.988125,25.3861945 99.988125,27.0878862 L99.988125,34.2816885 L108.107375,34.2816885 C109.792375,34.2816885 111.159125,32.9037913 111.159125,31.2003289 L111.159125,30.1692458 L104.046375,30.1692458 L104.052125,30.1692458 L104.052125,28.1159336 L104.046375,28.1159336 L104.046375,28.1146688 L112.172625,28.1146688 L112.172625,34.2816885 L116.238875,34.285736 Z" id="Fill-62" fill="#0054A3" mask="url(#mask-2)"></path>
                <path d="M11.12975,34.2726324 L11.16,28.1159842 L11.15375,28.1159842 L11.15375,28.1147194 L12.84875,28.1147194 L14.256,28.1147194 L14.256,34.2817391 L15.26425,34.2817391 C16.94925,34.2817391 18.31725,32.9038419 18.31725,31.2001265 L18.31725,30.1692964 L18.31975,30.1692964 L18.31975,28.1159842 L18.31275,28.1159842 L18.31275,28.1147194 L18.32375,28.1147194 L18.31725,27.0879368 C18.31725,25.3862451 16.9545,24.0063241 15.272,24.0063241 L11.83675,24.0063241 C11.13125,24.0063241 10.49025,24.2575178 9.97475,24.6655494 C9.458,24.2575178 8.817,24.0063241 8.114,24.0063241 L0,24.0161897 L0,34.2817391 L4.06475,34.2776917 L4.06475,28.1159842 L4.05675,28.1159842 L4.05675,28.1147194 L7.09625,28.1147194 L7.09625,34.2817391 L11.12975,34.2726324 Z M12.85575,28.1159842 L12.84875,28.1147194 L12.84875,28.1159842 L12.85575,28.1159842 Z" id="Fill-63" fill="#0054A3" mask="url(#mask-2)"></path>
                <path d="M52.154525,34.3506972 L56.215275,34.3314719 L56.215275,28.1664759 L62.308525,28.1664759 L62.308525,27.1472822 C62.308525,25.4410372 60.948775,24.0580806 59.265275,24.0580806 L58.245275,24.0580806 L58.245275,24.0545391 L56.216775,24.0545391 L56.216775,24.0613692 L56.215275,24.0613692 L56.215275,21.9445628 L62.308525,21.9445628 L62.308525,20.9246103 C62.308525,19.219883 60.948775,17.8359146 59.265275,17.8359146 L58.245275,17.8359146 L58.245275,17.8323731 L56.216775,17.8323731 L56.216775,17.8392032 L56.215275,17.8392032 L56.215275,17.8298435 L55.201525,17.8359146 C53.518275,17.8359146 52.154525,19.2138119 52.154525,20.9160095 L52.154525,34.3506972 Z" id="Fill-64" fill="#0054A3" mask="url(#mask-2)"></path>
                <path d="M82.151225,34.2816632 L95.373725,34.2816632 C97.054725,34.2816632 98.418475,32.9017423 98.418475,31.2003036 L98.400225,30.173268 L92.082725,30.173268 L98.459225,24.0062482 L85.215475,24.0062482 C83.532975,24.0062482 82.170475,25.3861692 82.170475,27.0878609 L82.170475,28.1346277 L88.772975,28.1207146 L82.151225,34.2816632 Z" id="Fill-65" fill="#0054A3" mask="url(#mask-2)"></path>
                <path d="M141.28135,6.87898814 L131.7381,28.9559526 C134.43685,27.0233043 137.7276,25.8836996 141.28135,25.8836996 L141.28135,6.87898814 Z" id="Fill-66" fill="#00853F" mask="url(#mask-2)"></path>
                <path d="M141.28135,6.87898814 L150.82485,28.9559526 C148.13385,27.0233043 144.83885,25.8836996 141.28135,25.8836996 L141.28135,6.87898814 Z" id="Fill-67" fill="#55B847" mask="url(#mask-2)"></path>
                <path d="M129.789425,2.52964427e-05 L120.245925,22.0724364 C122.941925,20.1370055 126.235675,18.9986656 129.789425,18.9986656 L129.789425,2.52964427e-05 Z" id="Fill-68" fill="#00853F" mask="url(#mask-2)"></path>
                <path d="M129.789425,2.52964427e-05 L139.332675,22.0724364 C136.637925,20.1370055 133.345675,18.9986656 129.789425,18.9986656 L129.789425,2.52964427e-05 Z" id="Fill-69" fill="#55B847" mask="url(#mask-2)"></path>
            </g>
        </g>
    </g>
</svg>